<svg width="45" height="7" viewBox="0 0 45 7" fill="none" xmlns="http://www.w3.org/2000/svg">
<path d="M4.53062 1.6875C4.53062 2.51593 3.84534 3.1875 3 3.1875C2.15466 3.1875 1.46938 2.51593 1.46938 1.6875C1.46938 0.859073 2.15466 0.1875 3 0.1875C3.84534 0.1875 4.53062 0.859073 4.53062 1.6875Z" fill="#5EB3CE"/>
<path d="M0 6.1875H6C5.71636 4.47582 4.481 3.1875 3 3.1875C1.519 3.1875 0.28364 4.47582 0 6.1875Z" fill="#5EB3CE"/>
<path d="M7.21484 5.60156L7.63672 5.54297L9.625 0.40625H10.2852L12.2383 5.54297L12.6562 5.60156V6.09375H11.0234V5.60156L11.4531 5.52734L11.0781 4.48047H8.80078L8.41406 5.52734L8.84375 5.60156V6.09375H7.21484V5.60156ZM9.03906 3.83594H10.8438L9.96094 1.39453H9.9375L9.03906 3.83594Z" fill="#5EB3CE"/>
<path d="M17.0742 4.14062C17.0742 4.75 16.9271 5.24219 16.6328 5.61719C16.3411 5.98958 15.9388 6.17578 15.4258 6.17578C15.1497 6.17578 14.9102 6.1237 14.707 6.01953C14.5039 5.91276 14.3346 5.75651 14.1992 5.55078L14.1289 6.09375H13.4648V0.605469L12.8281 0.496094V0H14.2344V2.36719C14.3672 2.17969 14.5312 2.03646 14.7266 1.9375C14.9245 1.83854 15.1549 1.78906 15.418 1.78906C15.9388 1.78906 16.3451 1.9974 16.6367 2.41406C16.9284 2.83073 17.0742 3.37891 17.0742 4.05859V4.14062ZM16.3008 4.05859C16.3008 3.57161 16.2122 3.17578 16.0352 2.87109C15.8581 2.56641 15.5872 2.41406 15.2227 2.41406C14.9857 2.41406 14.7852 2.47135 14.6211 2.58594C14.4596 2.70052 14.3307 2.85417 14.2344 3.04688V4.91406C14.3307 5.10938 14.4609 5.26432 14.625 5.37891C14.7917 5.49349 14.9935 5.55078 15.2305 5.55078C15.5924 5.55078 15.8607 5.42188 16.0352 5.16406C16.2122 4.90625 16.3008 4.5651 16.3008 4.14062V4.05859Z" fill="#5EB3CE"/>
<path d="M17.8438 3.94141C17.8438 3.31641 18.013 2.80208 18.3516 2.39844C18.6901 1.99219 19.1497 1.78906 19.7305 1.78906C20.3138 1.78906 20.7747 1.99089 21.1133 2.39453C21.4544 2.79818 21.625 3.3138 21.625 3.94141V4.02734C21.625 4.65755 21.4557 5.17318 21.1172 5.57422C20.7786 5.97526 20.319 6.17578 19.7383 6.17578C19.1523 6.17578 18.6901 5.97526 18.3516 5.57422C18.013 5.17057 17.8438 4.65495 17.8438 4.02734V3.94141ZM18.6133 4.02734C18.6133 4.47526 18.707 4.84505 18.8945 5.13672C19.0846 5.42839 19.3659 5.57422 19.7383 5.57422C20.1029 5.57422 20.3802 5.42839 20.5703 5.13672C20.7604 4.84505 20.8555 4.47526 20.8555 4.02734V3.94141C20.8555 3.4987 20.7604 3.13021 20.5703 2.83594C20.3802 2.54167 20.1003 2.39453 19.7305 2.39453C19.3607 2.39453 19.082 2.54167 18.8945 2.83594C18.707 3.13021 18.6133 3.4987 18.6133 3.94141V4.02734Z" fill="#5EB3CE"/>
<path d="M25.3555 5.46875C25.2227 5.69531 25.0508 5.86979 24.8398 5.99219C24.6315 6.11458 24.3906 6.17578 24.1172 6.17578C23.6589 6.17578 23.3008 6.02865 23.043 5.73438C22.7852 5.4401 22.6562 4.98177 22.6562 4.35938V2.47266L22.1719 2.36328V1.86719H23.4258V4.36719C23.4258 4.81771 23.4922 5.1276 23.625 5.29688C23.7578 5.46615 23.9648 5.55078 24.2461 5.55078C24.5195 5.55078 24.7448 5.49609 24.9219 5.38672C25.1016 5.27474 25.237 5.11719 25.3281 4.91406V2.47266L24.7617 2.36328V1.86719H26.0977V5.49219L26.582 5.60156V6.09375H25.4062L25.3555 5.46875Z" fill="#5EB3CE"/>
<path d="M28.5352 0.847656V1.86719H29.3359V2.4375H28.5352V5.00391C28.5352 5.20182 28.5755 5.34115 28.6562 5.42188C28.7396 5.5026 28.849 5.54297 28.9844 5.54297C29.0521 5.54297 29.1276 5.53776 29.2109 5.52734C29.2969 5.51432 29.3685 5.5013 29.4258 5.48828L29.5312 6.01562C29.4583 6.0625 29.3516 6.10026 29.2109 6.12891C29.0703 6.16016 28.9297 6.17578 28.7891 6.17578C28.4766 6.17578 28.2279 6.08203 28.043 5.89453C27.8581 5.70443 27.7656 5.40755 27.7656 5.00391V2.4375H27.0977V1.86719H27.7656V0.847656H28.5352Z" fill="#5EB3CE"/>
<path d="M31.9609 5.60156L32.5977 5.49219V2.47266L31.9609 2.36328V1.86719H33.2891L33.3398 2.41797C33.4753 2.21745 33.6497 2.0625 33.8633 1.95312C34.0768 1.84375 34.3242 1.78906 34.6055 1.78906C34.8867 1.78906 35.1276 1.85417 35.3281 1.98438C35.5312 2.11458 35.6836 2.3099 35.7852 2.57031C35.918 2.33073 36.0938 2.14062 36.3125 2C36.5312 1.85938 36.7865 1.78906 37.0781 1.78906C37.5104 1.78906 37.8516 1.9375 38.1016 2.23438C38.3516 2.52865 38.4766 2.97266 38.4766 3.56641V5.49219L39.1133 5.60156V6.09375H37.0664V5.60156L37.7031 5.49219V3.55859C37.7031 3.14193 37.6315 2.84766 37.4883 2.67578C37.3451 2.5013 37.1328 2.41406 36.8516 2.41406C36.5833 2.41406 36.3672 2.50911 36.2031 2.69922C36.0417 2.88672 35.9479 3.1237 35.9219 3.41016V5.49219L36.5586 5.60156V6.09375H34.5156V5.60156L35.1523 5.49219V3.55859C35.1523 3.16276 35.0781 2.8737 34.9297 2.69141C34.7839 2.50651 34.5716 2.41406 34.293 2.41406C34.0586 2.41406 33.8659 2.46224 33.7148 2.55859C33.5638 2.65495 33.4479 2.79036 33.3672 2.96484V5.49219L34.0039 5.60156V6.09375H31.9609V5.60156Z" fill="#5EB3CE"/>
<path d="M41.5664 6.17578C40.9779 6.17578 40.5091 5.98047 40.1602 5.58984C39.8138 5.19661 39.6406 4.6875 39.6406 4.0625V3.89062C39.6406 3.28906 39.819 2.78906 40.1758 2.39062C40.5352 1.98958 40.9596 1.78906 41.4492 1.78906C42.0169 1.78906 42.4466 1.96094 42.7383 2.30469C43.0326 2.64844 43.1797 3.10677 43.1797 3.67969V4.16016H40.4375L40.4258 4.17969C40.4336 4.58594 40.5365 4.92057 40.7344 5.18359C40.9323 5.44401 41.2096 5.57422 41.5664 5.57422C41.8268 5.57422 42.0547 5.53776 42.25 5.46484C42.4479 5.38932 42.6185 5.28646 42.7617 5.15625L43.0625 5.65625C42.9115 5.80208 42.7109 5.92578 42.4609 6.02734C42.2135 6.1263 41.9154 6.17578 41.5664 6.17578ZM41.4492 2.39453C41.1914 2.39453 40.9714 2.50391 40.7891 2.72266C40.6068 2.9388 40.4948 3.21094 40.4531 3.53906L40.4609 3.55859H42.4102V3.45703C42.4102 3.15495 42.3294 2.90234 42.168 2.69922C42.0065 2.49609 41.7669 2.39453 41.4492 2.39453Z" fill="#5EB3CE"/>
<path d="M44.9297 6.09375H44.1602V5.30469H44.9297V6.09375ZM44.9297 2.65625H44.1602V1.86719H44.9297V2.65625Z" fill="#5EB3CE"/>
</svg>
