<svg width="45" height="7" viewBox="0 0 45 7" fill="none" xmlns="http://www.w3.org/2000/svg">
<path d="M7.21484 5.75L7.63281 5.71875L9.65234 0.40625H10.0938L12.0938 5.71875L12.5195 5.75V6.09375H11.1172V5.75L11.6133 5.71094L11.1445 4.4375H8.58984L8.11719 5.71094L8.61328 5.75V6.09375H7.21484V5.75ZM8.74609 4.01953H10.9922L9.88672 1.01172H9.86328L8.74609 4.01953Z" fill="#5EB3CE"/>
<path d="M16.8164 4.09766C16.8164 4.73047 16.6732 5.23568 16.3867 5.61328C16.1003 5.98828 15.7057 6.17578 15.2031 6.17578C14.8932 6.17578 14.6263 6.11458 14.4023 5.99219C14.1784 5.86719 13.9974 5.6888 13.8594 5.45703L13.8086 6.09375H13.4102V0.398438L12.7734 0.347656V0H13.875V2.53125C14.0156 2.29427 14.1953 2.11198 14.4141 1.98438C14.6328 1.85417 14.8932 1.78906 15.1953 1.78906C15.7031 1.78906 16.1003 1.99219 16.3867 2.39844C16.6732 2.80208 16.8164 3.34115 16.8164 4.01562V4.09766ZM16.3438 4.01562C16.3438 3.47656 16.2396 3.03906 16.0312 2.70312C15.8229 2.36458 15.5156 2.19531 15.1094 2.19531C14.7812 2.19531 14.5169 2.27604 14.3164 2.4375C14.1185 2.59896 13.9714 2.80599 13.875 3.05859V4.96875C13.9792 5.21354 14.1341 5.40885 14.3398 5.55469C14.5482 5.69792 14.8073 5.76953 15.1172 5.76953C15.5234 5.76953 15.8294 5.61849 16.0352 5.31641C16.2409 5.01432 16.3438 4.60807 16.3438 4.09766V4.01562Z" fill="#5EB3CE"/>
<path d="M17.6133 3.91797C17.6133 3.29557 17.7839 2.78516 18.125 2.38672C18.4661 1.98828 18.918 1.78906 19.4805 1.78906C20.0456 1.78906 20.4987 1.98828 20.8398 2.38672C21.181 2.78516 21.3516 3.29557 21.3516 3.91797V4.04688C21.3516 4.67188 21.181 5.18359 20.8398 5.58203C20.5013 5.97786 20.0508 6.17578 19.4883 6.17578C18.9206 6.17578 18.4661 5.97786 18.125 5.58203C17.7839 5.18359 17.6133 4.67188 17.6133 4.04688V3.91797ZM18.082 4.04688C18.082 4.53646 18.2057 4.94792 18.4531 5.28125C18.7005 5.61458 19.0456 5.78125 19.4883 5.78125C19.9232 5.78125 20.2643 5.61458 20.5117 5.28125C20.7591 4.94792 20.8828 4.53646 20.8828 4.04688V3.91797C20.8828 3.4362 20.7578 3.02734 20.5078 2.69141C20.2604 2.35547 19.918 2.1875 19.4805 2.1875C19.043 2.1875 18.7005 2.35547 18.4531 2.69141C18.2057 3.02734 18.082 3.4362 18.082 3.91797V4.04688Z" fill="#5EB3CE"/>
<path d="M25.2188 5.39844C25.0859 5.64583 24.9036 5.83724 24.6719 5.97266C24.4427 6.10807 24.1719 6.17578 23.8594 6.17578C23.4141 6.17578 23.0651 6.02474 22.8125 5.72266C22.5625 5.42057 22.4375 4.95182 22.4375 4.31641V2.26562L21.9141 2.21484V1.86719H22.9023V4.32422C22.9023 4.83984 22.9896 5.20964 23.1641 5.43359C23.3411 5.65755 23.5911 5.76953 23.9141 5.76953C24.2682 5.76953 24.5495 5.69141 24.7578 5.53516C24.9688 5.37891 25.1172 5.16276 25.2031 4.88672V2.26562L24.6016 2.21484V1.86719H25.6719V5.69922L26.2383 5.75V6.09375H25.2617L25.2188 5.39844Z" fill="#5EB3CE"/>
<path d="M28 0.785156V1.86719H28.9297V2.25H28V5.00391C28 5.27995 28.0495 5.47656 28.1484 5.59375C28.25 5.70833 28.3841 5.76562 28.5508 5.76562C28.6263 5.76562 28.6992 5.76302 28.7695 5.75781C28.8424 5.75 28.9258 5.73828 29.0195 5.72266L29.0898 6.07031C29.0117 6.10417 28.9167 6.13021 28.8047 6.14844C28.6927 6.16667 28.5807 6.17578 28.4688 6.17578C28.1719 6.17578 27.9401 6.08203 27.7734 5.89453C27.6094 5.70703 27.5273 5.41016 27.5273 5.00391V2.25H26.8008V1.86719H27.5273V0.785156H28Z" fill="#5EB3CE"/>
<path d="M31.6367 2.21484V1.86719H32.6875L32.7305 2.56641C32.8659 2.31901 33.0469 2.1276 33.2734 1.99219C33.5 1.85677 33.7695 1.78906 34.082 1.78906C34.4049 1.78906 34.6745 1.86849 34.8906 2.02734C35.1068 2.18359 35.2617 2.42318 35.3555 2.74609C35.4831 2.44922 35.6641 2.21615 35.8984 2.04688C36.1354 1.875 36.4232 1.78906 36.7617 1.78906C37.2122 1.78906 37.5599 1.9388 37.8047 2.23828C38.0521 2.53776 38.1758 3.0013 38.1758 3.62891V5.69531L38.8125 5.75V6.09375H37.0664V5.75L37.7031 5.69531V3.62109C37.7031 3.10026 37.6107 2.73307 37.4258 2.51953C37.2435 2.30339 36.9883 2.19531 36.6602 2.19531C36.2956 2.19531 36.0143 2.3112 35.8164 2.54297C35.6211 2.77474 35.5 3.07031 35.4531 3.42969C35.4531 3.45052 35.4531 3.47005 35.4531 3.48828C35.4557 3.50651 35.457 3.52995 35.457 3.55859V5.69922L36.0938 5.75V6.09375H34.3516V5.75L34.9883 5.69922V3.62109C34.9883 3.11068 34.8945 2.74609 34.707 2.52734C34.5221 2.30599 34.2669 2.19531 33.9414 2.19531C33.6081 2.19531 33.3438 2.27995 33.1484 2.44922C32.9557 2.61589 32.8203 2.84115 32.7422 3.125V5.69922L33.3789 5.75V6.09375H31.6367V5.75L32.2734 5.69922V2.26562L31.6367 2.21484Z" fill="#5EB3CE"/>
<path d="M41.2188 6.17578C40.6875 6.17578 40.2474 5.98177 39.8984 5.59375C39.5495 5.20312 39.375 4.70703 39.375 4.10547V3.89062C39.375 3.28646 39.5482 2.78516 39.8945 2.38672C40.2435 1.98828 40.6641 1.78906 41.1562 1.78906C41.6745 1.78906 42.082 1.95312 42.3789 2.28125C42.6758 2.60938 42.8242 3.04688 42.8242 3.59375V3.99219H39.8398V4.10547C39.8398 4.57943 39.9661 4.97786 40.2188 5.30078C40.474 5.62109 40.8073 5.78125 41.2188 5.78125C41.5078 5.78125 41.7552 5.74089 41.9609 5.66016C42.1667 5.57943 42.3424 5.46354 42.4883 5.3125L42.6875 5.63281C42.5286 5.79948 42.3281 5.93229 42.0859 6.03125C41.8438 6.1276 41.5547 6.17578 41.2188 6.17578ZM41.1562 2.1875C40.8125 2.1875 40.5221 2.32031 40.2852 2.58594C40.0508 2.84896 39.9141 3.17969 39.875 3.57812L39.8828 3.59766H42.3594V3.48047C42.3594 3.11328 42.2513 2.80599 42.0352 2.55859C41.819 2.3112 41.526 2.1875 41.1562 2.1875Z" fill="#5EB3CE"/>
<path d="M44.3281 6.09375H43.793V5.45312H44.3281V6.09375ZM44.3281 2.51562H43.793V1.875H44.3281V2.51562Z" fill="#5EB3CE"/>
<path d="M4.53062 1.59375C4.53062 2.42218 3.84534 3.09375 3 3.09375C2.15466 3.09375 1.46938 2.42218 1.46938 1.59375C1.46938 0.765323 2.15466 0.09375 3 0.09375C3.84534 0.09375 4.53062 0.765323 4.53062 1.59375Z" fill="#5EB3CE"/>
<path d="M0 6.09375H6C5.71636 4.38207 4.481 3.09375 3 3.09375C1.519 3.09375 0.28364 4.38207 0 6.09375Z" fill="#5EB3CE"/>
</svg>
