<svg width="15" height="15" viewBox="0 0 15 15" fill="none" xmlns="http://www.w3.org/2000/svg">
<path fill-rule="evenodd" clip-rule="evenodd" d="M8.99516 4.82473C9.40711 4.70073 9.44242 4.13369 9.04764 3.9821C8.77282 3.87658 8.68268 3.53689 8.86661 3.29987L8.89779 3.25969C9.1556 2.92746 8.84822 2.47205 8.44518 2.58911C8.15963 2.67205 7.88345 2.45596 7.90034 2.16283L7.90223 2.12996C7.92601 1.71734 7.40281 1.53223 7.14262 1.8612C6.95788 2.09477 6.60076 2.08256 6.44584 1.83737C6.22764 1.49205 5.68366 1.64066 5.65605 2.05314L5.65385 2.086C5.63424 2.37904 5.33237 2.57536 5.05834 2.47329C4.67157 2.32922 4.30889 2.76171 4.52431 3.11012L4.55037 3.15226C4.70406 3.40083 4.57209 3.73292 4.28532 3.81924C3.87338 3.94324 3.83806 4.51028 4.23285 4.66187C4.50767 4.7674 4.5978 5.10709 4.41387 5.34411L4.38269 5.38429C4.12488 5.71651 4.43226 6.17192 4.8353 6.05486C5.12085 5.97193 5.39704 6.18801 5.38015 6.48115L5.37825 6.51402C5.35448 6.92663 5.87767 7.11174 6.13786 6.78277C6.3226 6.5492 6.67972 6.56141 6.83465 6.8066C7.05285 7.15193 7.59682 7.00331 7.62443 6.59083L7.62663 6.55797C7.64624 6.26493 7.94811 6.06861 8.22214 6.17069C8.60892 6.31476 8.97159 5.88226 8.75617 5.53385L8.73011 5.49171C8.57643 5.24315 8.70839 4.91105 8.99516 4.82473ZM6.11071 4.46453C6.17782 4.76427 6.4693 4.94344 6.76175 4.86471C7.05421 4.78598 7.23688 4.47917 7.16977 4.17942C7.10266 3.87967 6.81118 3.7005 6.51873 3.77923C6.22628 3.85796 6.0436 4.16478 6.11071 4.46453Z" fill="#DC3535"/>
<path fill-rule="evenodd" clip-rule="evenodd" d="M9.1756 8.90597C9.4168 8.53248 9.05308 8.09558 8.64206 8.26506C8.35406 8.38382 8.04723 8.19735 8.03371 7.89536C8.01441 7.46436 7.44901 7.33662 7.20431 7.70798C7.03286 7.96819 6.66415 8.00203 6.47326 7.77509C6.20083 7.4512 5.64971 7.68142 5.66482 8.1128C5.6754 8.41507 5.38563 8.65629 5.0903 8.59108C4.6688 8.49802 4.34247 8.99826 4.6116 9.3249C4.80017 9.55377 4.70004 9.91024 4.41306 10.0317C4.00349 10.205 4.0266 10.7842 4.44696 10.8813C4.74149 10.9493 4.86924 11.2849 4.70023 11.5466C4.45904 11.9201 4.82275 12.357 5.23378 12.1875C5.52177 12.0687 5.8286 12.2552 5.84212 12.5572C5.86143 12.9882 6.42683 13.1159 6.67152 12.7446C6.84297 12.4844 7.21168 12.4505 7.40257 12.6775C7.675 13.0014 8.22612 12.7711 8.21102 12.3397C8.20043 12.0375 8.4902 11.7963 8.78553 11.8615C9.20703 11.9545 9.53336 11.4543 9.26423 11.1277C9.07566 10.8988 9.17579 10.5423 9.46277 10.4209C9.87234 10.2476 9.84923 9.66839 9.42887 9.57126C9.13434 9.50321 9.0066 9.16766 9.1756 8.90597ZM6.4886 10.6003C6.68425 10.8354 7.04403 10.8584 7.29218 10.6518C7.54034 10.4452 7.58289 10.0872 7.38724 9.85222C7.19158 9.6172 6.8318 9.59414 6.58365 9.80072C6.3355 10.0073 6.29294 10.3653 6.4886 10.6003Z" fill="#DC3535"/>
<path fill-rule="evenodd" clip-rule="evenodd" d="M12.5847 7.55778C12.8898 7.51449 12.9809 7.11163 12.7175 6.97106C12.5325 6.8724 12.5091 6.61781 12.6716 6.46997C12.9015 6.2607 12.7433 5.89607 12.4399 5.93626L12.4195 5.93897C12.2046 5.96744 12.0343 5.78313 12.0809 5.57257C12.1473 5.27253 11.7882 5.08671 11.5542 5.29578C11.3894 5.443 11.1319 5.39895 11.0436 5.20842C10.9181 4.93784 10.5049 4.99155 10.4356 5.29108C10.3869 5.50129 10.149 5.61575 9.96256 5.51863L9.94485 5.5094C9.68162 5.37227 9.37625 5.65758 9.49788 5.927C9.58381 6.11734 9.4512 6.34523 9.23706 6.37562C8.93196 6.41891 8.84079 6.82177 9.10427 6.96234C9.2892 7.061 9.31262 7.31559 9.15016 7.46343C8.92019 7.6727 9.07847 8.03733 9.38183 7.99714L9.40225 7.99443C9.61711 7.96596 9.78743 8.15027 9.74084 8.36083C9.67447 8.66087 10.0335 8.84669 10.2675 8.63762C10.4323 8.4904 10.6898 8.53445 10.7781 8.72499C10.9036 8.99556 11.3168 8.94185 11.3862 8.64232C11.4348 8.43211 11.6727 8.31765 11.8592 8.41477L11.8769 8.424C12.1401 8.56113 12.4455 8.27582 12.3239 8.0064C12.2379 7.81606 12.3705 7.58817 12.5847 7.55778ZM10.5138 6.89877C10.4652 7.11353 10.6035 7.31804 10.8229 7.35556C11.0422 7.39308 11.2594 7.2494 11.308 7.03465C11.3566 6.81989 11.2182 6.61538 10.9989 6.57785C10.7796 6.54033 10.5624 6.68401 10.5138 6.89877Z" fill="#DC3535"/>
</svg>
