<svg width="466" height="68" viewBox="0 0 466 68" fill="none" xmlns="http://www.w3.org/2000/svg">
<path d="M514.231 0H16.5491C16.5491 0 53.7845 24.8657 16.5491 34C-20.6863 43.1343 16.5491 68 16.5491 68H514.231C514.231 68 472.001 48.9701 514.231 34C556.461 19.0299 514.231 0 514.231 0Z" fill="#B1BCD9" fill-opacity="0.33"/>
<path d="M514.14 0.508632C514.134 0.505628 514.128 0.502751 514.122 0.5H18.1226C18.203 0.558727 18.2866 0.620077 18.3732 0.683989C19.3259 1.38709 20.6442 2.40125 22.1092 3.64709C25.0323 6.13297 28.5678 9.56513 30.9349 13.3073C33.2946 17.0377 34.5669 21.2007 32.708 25.0513C30.8614 28.8767 26.0139 32.193 16.6682 34.4856C7.39618 36.7602 2.93481 39.9775 1.29065 43.3834C-0.341309 46.7641 0.713562 50.5303 3.00836 54.1581C5.29565 57.7741 8.74182 61.1292 11.6368 63.5911C13.0808 64.8192 14.3806 65.819 15.3187 66.5114C15.7877 66.8575 16.1661 67.1266 16.4265 67.3088C16.543 67.3902 16.6358 67.4542 16.7027 67.5H512.08C511.017 66.9505 509.598 66.1777 508.031 65.2192C504.717 63.1916 500.698 60.3086 498.004 56.9253C495.306 53.5381 493.862 49.5411 495.97 45.4012C498.041 41.3304 503.484 37.2793 514.064 33.5287C524.599 29.7942 529.714 25.8528 531.601 22.1452C533.453 18.5066 532.258 14.9392 529.676 11.6977C527.092 8.45226 523.192 5.64221 519.909 3.63386C518.272 2.63279 516.799 1.83707 515.735 1.29188C515.203 1.01937 514.774 0.809668 514.479 0.668415C514.332 0.597793 514.217 0.544297 514.14 0.508632Z" stroke="#998C8C" stroke-opacity="0.17"/>
</svg>
