<svg width="511" height="273" viewBox="0 0 511 273" fill="none" xmlns="http://www.w3.org/2000/svg">
<path d="M244.309 76.548C244.309 76.548 288.638 35.1951 288.638 67C288.638 35.1951 334 67 334 67C334 67 288.638 98.8048 288.638 67C288.638 98.8048 244.309 76.548 244.309 76.548Z" fill="#C4C4C4"/>
<path d="M288.638 112C288.638 112 256.577 67 288.638 67C256.577 67 288.638 22 288.638 22C288.638 22 320.699 67 288.638 67C320.699 67 288.638 112 288.638 112Z" fill="#C4C4C4"/>
<path d="M264.098 104.847C264.098 104.847 265.968 44.5106 288.638 67C265.968 44.5106 320.714 35.1802 320.714 35.1802C320.714 35.1802 311.308 89.4894 288.638 67C311.308 89.4894 264.098 104.847 264.098 104.847Z" fill="#C4C4C4"/>
<path d="M320.714 98.8198C320.714 98.8198 265.968 89.4894 288.638 67C265.968 89.4894 250.487 42.6562 250.487 42.6562C250.487 42.6562 311.308 44.5106 288.638 67C311.308 44.5106 320.714 98.8198 320.714 98.8198Z" fill="#C4C4C4"/>
<path d="M251.366 92.6499C251.366 92.6499 276.369 37.6162 288.638 67C276.369 37.6162 330.547 49.7793 330.547 49.7793C330.547 49.7793 300.907 96.3839 288.638 67C300.907 96.3839 251.366 92.6499 251.366 92.6499Z" fill="#C4C4C4"/>
<path d="M305.997 108.575C305.997 108.575 259.018 79.1712 288.638 67C259.018 79.1712 264.098 28.9785 264.098 28.9785C264.098 28.9785 318.258 54.8288 288.638 67C318.258 54.8288 305.997 108.575 305.997 108.575Z" fill="#C4C4C4"/>
<path d="M271.279 108.575C271.279 108.575 259.018 54.8288 288.638 67C259.018 54.8288 305.997 26.105 305.997 26.105C305.997 26.105 318.258 79.1712 288.638 67C318.258 79.1712 271.279 108.575 271.279 108.575Z" fill="#C4C4C4"/>
<path d="M330.547 84.2208C330.547 84.2208 276.369 96.3839 288.638 67C276.369 96.3839 244 58.9926 244 58.9926C244 58.9926 300.907 37.6162 288.638 67C300.907 37.6162 330.547 84.2208 330.547 84.2208Z" fill="#C4C4C4"/>
<path d="M244.309 76.548C244.309 76.548 281.835 35.9193 288.638 67C281.835 35.9193 334 67 334 67C334 67 295.441 98.0807 288.638 67C295.441 98.0807 244.309 76.548 244.309 76.548Z" fill="#C4C4C4"/>
<path d="M288.638 112C288.638 112 257.307 73.7483 288.638 67C257.307 73.7483 288.638 22 288.638 22C288.638 22 319.969 60.2517 288.638 67C319.969 60.2517 288.638 112 288.638 112Z" fill="#C4C4C4"/>
<path d="M264.098 104.847C264.098 104.847 261.674 49.7944 288.638 67C261.674 49.7944 320.714 35.1802 320.714 35.1802C320.714 35.1802 315.602 84.2056 288.638 67C315.602 84.2056 264.098 104.847 264.098 104.847Z" fill="#C4C4C4"/>
<path d="M320.714 98.8198C320.714 98.8198 271.294 93.7491 288.638 67C271.294 93.7491 250.487 42.6562 250.487 42.6562C250.487 42.6562 305.982 40.2509 288.638 67C305.982 40.2509 320.714 98.8198 320.714 98.8198Z" fill="#C4C4C4"/>
<path d="M251.366 92.6499C251.366 92.6499 270.364 40.8676 288.638 67C270.364 40.8676 330.547 49.7793 330.547 49.7793C330.547 49.7793 306.912 93.1324 288.638 67C306.912 93.1324 251.366 92.6499 251.366 92.6499Z" fill="#C4C4C4"/>
<path d="M305.997 108.575C305.997 108.575 262.295 85.1287 288.638 67C262.295 85.1287 264.098 28.9785 264.098 28.9785C264.098 28.9785 314.981 48.8713 288.638 67C314.981 48.8713 305.997 108.575 305.997 108.575Z" fill="#C4C4C4"/>
<path d="M271.279 108.575C271.279 108.575 257.089 61.3405 288.638 67C257.089 61.3405 305.997 26.105 305.997 26.105C305.997 26.105 320.187 72.6595 288.638 67C320.187 72.6595 271.279 108.575 271.279 108.575Z" fill="#C4C4C4"/>
<path d="M330.547 84.2208C330.547 84.2208 282.933 98.2973 288.638 67C282.933 98.2973 244 58.9926 244 58.9926C244 58.9926 294.343 35.7027 288.638 67C294.343 35.7027 330.547 84.2208 330.547 84.2208Z" fill="#C4C4C4"/>
<path d="M244.309 76.548C244.309 76.548 288.638 35.1951 288.638 67M244.309 76.548C244.309 76.548 288.638 98.8048 288.638 67M244.309 76.548C244.309 76.548 281.835 35.9193 288.638 67M244.309 76.548C244.309 76.548 295.441 98.0807 288.638 67M288.638 67C288.638 98.8048 334 67 334 67M288.638 67C288.638 35.1951 334 67 334 67M288.638 67C256.577 67 288.638 112 288.638 112M288.638 67C320.699 67 288.638 22 288.638 22M288.638 67C320.699 67 288.638 112 288.638 112M288.638 67C256.577 67 288.638 22 288.638 22M288.638 67C265.968 44.5106 264.098 104.847 264.098 104.847M288.638 67C311.308 89.4894 320.714 35.1802 320.714 35.1802M288.638 67C311.308 89.4894 264.098 104.847 264.098 104.847M288.638 67C265.968 44.5106 320.714 35.1802 320.714 35.1802M288.638 67C265.968 89.4894 320.714 98.8198 320.714 98.8198M288.638 67C311.308 44.5106 250.487 42.6562 250.487 42.6562M288.638 67C311.308 44.5106 320.714 98.8198 320.714 98.8198M288.638 67C265.968 89.4894 250.487 42.6562 250.487 42.6562M288.638 67C276.369 37.6162 251.366 92.6499 251.366 92.6499M288.638 67C300.907 96.3838 330.547 49.7793 330.547 49.7793M288.638 67C300.907 96.3838 251.366 92.6499 251.366 92.6499M288.638 67C276.369 37.6162 330.547 49.7793 330.547 49.7793M288.638 67C259.018 79.1712 305.997 108.575 305.997 108.575M288.638 67C318.258 54.8288 264.098 28.9785 264.098 28.9785M288.638 67C318.258 54.8288 305.997 108.575 305.997 108.575M288.638 67C259.018 79.1712 264.098 28.9785 264.098 28.9785M288.638 67C259.018 54.8288 271.279 108.575 271.279 108.575M288.638 67C318.258 79.1712 305.997 26.105 305.997 26.105M288.638 67C318.258 79.1712 271.279 108.575 271.279 108.575M288.638 67C259.018 54.8288 305.997 26.105 305.997 26.105M288.638 67C276.369 96.3838 330.547 84.2208 330.547 84.2208M288.638 67C300.907 37.6162 244 58.9926 244 58.9926M288.638 67C300.907 37.6162 330.547 84.2208 330.547 84.2208M288.638 67C276.369 96.3838 244 58.9926 244 58.9926M288.638 67C295.441 98.0807 334 67 334 67M288.638 67C281.835 35.9193 334 67 334 67M288.638 67C257.307 73.7483 288.638 112 288.638 112M288.638 67C319.969 60.2517 288.638 22 288.638 22M288.638 67C319.969 60.2517 288.638 112 288.638 112M288.638 67C257.307 73.7483 288.638 22 288.638 22M288.638 67C261.674 49.7944 264.098 104.847 264.098 104.847M288.638 67C315.602 84.2056 320.714 35.1802 320.714 35.1802M288.638 67C315.602 84.2056 264.098 104.847 264.098 104.847M288.638 67C261.674 49.7944 320.714 35.1802 320.714 35.1802M288.638 67C271.294 93.7491 320.714 98.8198 320.714 98.8198M288.638 67C305.982 40.2509 250.487 42.6562 250.487 42.6562M288.638 67C305.982 40.2509 320.714 98.8198 320.714 98.8198M288.638 67C271.294 93.7491 250.487 42.6562 250.487 42.6562M288.638 67C270.364 40.8676 251.366 92.6499 251.366 92.6499M288.638 67C306.912 93.1324 330.547 49.7793 330.547 49.7793M288.638 67C306.912 93.1324 251.366 92.6499 251.366 92.6499M288.638 67C270.364 40.8676 330.547 49.7793 330.547 49.7793M288.638 67C262.295 85.1287 305.997 108.575 305.997 108.575M288.638 67C314.981 48.8713 264.098 28.9785 264.098 28.9785M288.638 67C314.981 48.8713 305.997 108.575 305.997 108.575M288.638 67C262.295 85.1287 264.098 28.9785 264.098 28.9785M288.638 67C257.089 61.3405 271.279 108.575 271.279 108.575M288.638 67C320.187 72.6595 305.997 26.105 305.997 26.105M288.638 67C320.187 72.6595 271.279 108.575 271.279 108.575M288.638 67C257.089 61.3405 305.997 26.105 305.997 26.105M288.638 67C282.933 98.2973 330.547 84.2208 330.547 84.2208M288.638 67C294.343 35.7027 244 58.9926 244 58.9926M288.638 67C294.343 35.7027 330.547 84.2208 330.547 84.2208M288.638 67C282.933 98.2973 244 58.9926 244 58.9926" stroke="#4E6398"/>
<path d="M316.666 191.581C316.666 191.581 412.22 102.443 412.22 171C412.22 102.443 510 171 510 171C510 171 412.22 239.557 412.22 171C412.22 239.557 316.666 191.581 316.666 191.581Z" fill="#C4C4C4"/>
<path d="M412.22 268C412.22 268 343.111 171 412.22 171C343.111 171 412.22 74 412.22 74C412.22 74 481.328 171 412.22 171C481.328 171 412.22 268 412.22 268Z" fill="#C4C4C4"/>
<path d="M359.323 252.581C359.323 252.581 363.353 122.523 412.22 171C363.353 122.523 481.361 102.411 481.361 102.411C481.361 102.411 461.087 219.477 412.22 171C461.087 219.477 359.323 252.581 359.323 252.581Z" fill="#C4C4C4"/>
<path d="M481.361 239.589C481.361 239.589 363.353 219.477 412.22 171C363.353 219.477 329.983 118.526 329.983 118.526C329.983 118.526 461.087 122.523 412.22 171C461.087 122.523 481.361 239.589 481.361 239.589Z" fill="#C4C4C4"/>
<path d="M331.879 226.29C331.879 226.29 385.773 107.661 412.22 171C385.773 107.661 502.557 133.88 502.557 133.88C502.557 133.88 438.666 234.339 412.22 171C438.666 234.339 331.879 226.29 331.879 226.29Z" fill="#C4C4C4"/>
<path d="M449.639 260.616C449.639 260.616 348.372 197.236 412.22 171C348.372 197.236 359.323 89.0426 359.323 89.0426C359.323 89.0426 476.068 144.764 412.22 171C476.068 144.764 449.639 260.616 449.639 260.616Z" fill="#C4C4C4"/>
<path d="M374.801 260.616C374.801 260.616 348.372 144.764 412.22 171C348.372 144.764 449.639 82.8486 449.639 82.8486C449.639 82.8486 476.068 197.236 412.22 171C476.068 197.236 374.801 260.616 374.801 260.616Z" fill="#C4C4C4"/>
<path d="M502.557 208.12C502.557 208.12 385.773 234.339 412.22 171C385.773 234.339 316 153.74 316 153.74C316 153.74 438.666 107.661 412.22 171C438.666 107.661 502.557 208.12 502.557 208.12Z" fill="#C4C4C4"/>
<path d="M316.666 191.581C316.666 191.581 397.556 104.004 412.22 171C397.556 104.004 510 171 510 171C510 171 426.883 237.996 412.22 171C426.883 237.996 316.666 191.581 316.666 191.581Z" fill="#C4C4C4"/>
<path d="M412.22 268C412.22 268 344.685 185.546 412.22 171C344.685 185.546 412.22 74 412.22 74C412.22 74 479.755 156.454 412.22 171C479.755 156.454 412.22 268 412.22 268Z" fill="#C4C4C4"/>
<path d="M359.323 252.581C359.323 252.581 354.097 133.912 412.22 171C354.097 133.912 481.361 102.411 481.361 102.411C481.361 102.411 470.343 208.088 412.22 171C470.343 208.088 359.323 252.581 359.323 252.581Z" fill="#C4C4C4"/>
<path d="M481.361 239.589C481.361 239.589 374.834 228.659 412.22 171C374.834 228.659 329.983 118.526 329.983 118.526C329.983 118.526 449.606 113.341 412.22 171C449.606 113.341 481.361 239.589 481.361 239.589Z" fill="#C4C4C4"/>
<path d="M331.879 226.29C331.879 226.29 372.828 114.67 412.22 171C372.828 114.67 502.557 133.88 502.557 133.88C502.557 133.88 451.611 227.33 412.22 171C451.611 227.33 331.879 226.29 331.879 226.29Z" fill="#C4C4C4"/>
<path d="M449.639 260.616C449.639 260.616 355.437 210.077 412.22 171C355.437 210.077 359.323 89.0426 359.323 89.0426C359.323 89.0426 469.003 131.923 412.22 171C469.003 131.923 449.639 260.616 449.639 260.616Z" fill="#C4C4C4"/>
<path d="M374.801 260.616C374.801 260.616 344.214 158.801 412.22 171C344.214 158.801 449.639 82.8486 449.639 82.8486C449.639 82.8486 480.225 183.199 412.22 171C480.225 183.199 374.801 260.616 374.801 260.616Z" fill="#C4C4C4"/>
<path d="M502.557 208.12C502.557 208.12 399.922 238.463 412.22 171C399.922 238.463 316 153.74 316 153.74C316 153.74 424.517 103.537 412.22 171C424.517 103.537 502.557 208.12 502.557 208.12Z" fill="#C4C4C4"/>
<path d="M316.666 191.581C316.666 191.581 412.22 102.443 412.22 171M316.666 191.581C316.666 191.581 412.22 239.557 412.22 171M316.666 191.581C316.666 191.581 397.556 104.004 412.22 171M316.666 191.581C316.666 191.581 426.883 237.996 412.22 171M412.22 171C412.22 239.557 510 171 510 171M412.22 171C412.22 102.443 510 171 510 171M412.22 171C343.111 171 412.22 268 412.22 268M412.22 171C481.328 171 412.22 74 412.22 74M412.22 171C481.328 171 412.22 268 412.22 268M412.22 171C343.111 171 412.22 74 412.22 74M412.22 171C363.353 122.523 359.323 252.581 359.323 252.581M412.22 171C461.087 219.477 481.361 102.411 481.361 102.411M412.22 171C461.087 219.477 359.323 252.581 359.323 252.581M412.22 171C363.353 122.523 481.361 102.411 481.361 102.411M412.22 171C363.353 219.477 481.361 239.589 481.361 239.589M412.22 171C461.087 122.523 329.983 118.526 329.983 118.526M412.22 171C461.087 122.523 481.361 239.589 481.361 239.589M412.22 171C363.353 219.477 329.983 118.526 329.983 118.526M412.22 171C385.773 107.661 331.879 226.29 331.879 226.29M412.22 171C438.666 234.339 502.557 133.88 502.557 133.88M412.22 171C438.666 234.339 331.879 226.29 331.879 226.29M412.22 171C385.773 107.661 502.557 133.88 502.557 133.88M412.22 171C348.372 197.236 449.639 260.616 449.639 260.616M412.22 171C476.068 144.764 359.323 89.0426 359.323 89.0426M412.22 171C476.068 144.764 449.639 260.616 449.639 260.616M412.22 171C348.372 197.236 359.323 89.0426 359.323 89.0426M412.22 171C348.372 144.764 374.801 260.616 374.801 260.616M412.22 171C476.068 197.236 449.639 82.8486 449.639 82.8486M412.22 171C476.068 197.236 374.801 260.616 374.801 260.616M412.22 171C348.372 144.764 449.639 82.8486 449.639 82.8486M412.22 171C385.773 234.339 502.557 208.12 502.557 208.12M412.22 171C438.666 107.661 316 153.74 316 153.74M412.22 171C438.666 107.661 502.557 208.12 502.557 208.12M412.22 171C385.773 234.339 316 153.74 316 153.74M412.22 171C426.883 237.996 510 171 510 171M412.22 171C397.556 104.004 510 171 510 171M412.22 171C344.685 185.546 412.22 268 412.22 268M412.22 171C479.755 156.454 412.22 74 412.22 74M412.22 171C479.755 156.454 412.22 268 412.22 268M412.22 171C344.685 185.546 412.22 74 412.22 74M412.22 171C354.097 133.912 359.323 252.581 359.323 252.581M412.22 171C470.343 208.088 481.361 102.411 481.361 102.411M412.22 171C470.343 208.088 359.323 252.581 359.323 252.581M412.22 171C354.097 133.912 481.361 102.411 481.361 102.411M412.22 171C374.834 228.659 481.361 239.589 481.361 239.589M412.22 171C449.606 113.341 329.983 118.526 329.983 118.526M412.22 171C449.606 113.341 481.361 239.589 481.361 239.589M412.22 171C374.834 228.659 329.983 118.526 329.983 118.526M412.22 171C372.828 114.67 331.879 226.29 331.879 226.29M412.22 171C451.611 227.33 502.557 133.88 502.557 133.88M412.22 171C451.611 227.33 331.879 226.29 331.879 226.29M412.22 171C372.828 114.67 502.557 133.88 502.557 133.88M412.22 171C355.437 210.077 449.639 260.616 449.639 260.616M412.22 171C469.003 131.923 359.323 89.0426 359.323 89.0426M412.22 171C469.003 131.923 449.639 260.616 449.639 260.616M412.22 171C355.437 210.077 359.323 89.0426 359.323 89.0426M412.22 171C344.214 158.801 374.801 260.616 374.801 260.616M412.22 171C480.225 183.199 449.639 82.8486 449.639 82.8486M412.22 171C480.225 183.199 374.801 260.616 374.801 260.616M412.22 171C344.214 158.801 449.639 82.8486 449.639 82.8486M412.22 171C399.922 238.463 502.557 208.12 502.557 208.12M412.22 171C424.517 103.537 316 153.74 316 153.74M412.22 171C424.517 103.537 502.557 208.12 502.557 208.12M412.22 171C399.922 238.463 316 153.74 316 153.74" stroke="#7F8750"/>
<path d="M1.30889 225.548C1.30889 225.548 45.638 184.195 45.638 216C45.638 184.195 91 216 91 216C91 216 45.638 247.805 45.638 216C45.638 247.805 1.30889 225.548 1.30889 225.548Z" fill="#C4C4C4"/>
<path d="M45.638 261C45.638 261 13.5774 216 45.638 216C13.5774 216 45.638 171 45.638 171C45.638 171 77.6987 216 45.638 216C77.6987 216 45.638 261 45.638 261Z" fill="#C4C4C4"/>
<path d="M21.0984 253.847C21.0984 253.847 22.9677 193.511 45.638 216C22.9677 193.511 77.7138 184.18 77.7138 184.18C77.7138 184.18 68.3083 238.489 45.638 216C68.3083 238.489 21.0984 253.847 21.0984 253.847Z" fill="#C4C4C4"/>
<path d="M77.7138 247.82C77.7138 247.82 22.9677 238.489 45.638 216C22.9677 238.489 7.48684 191.656 7.48684 191.656C7.48684 191.656 68.3083 193.511 45.638 216C68.3083 193.511 77.7138 247.82 77.7138 247.82Z" fill="#C4C4C4"/>
<path d="M8.3665 241.65C8.3665 241.65 33.3689 186.616 45.638 216C33.3689 186.616 87.547 198.779 87.547 198.779C87.547 198.779 57.9071 245.384 45.638 216C57.9071 245.384 8.3665 241.65 8.3665 241.65Z" fill="#C4C4C4"/>
<path d="M62.9973 257.575C62.9973 257.575 16.0178 228.171 45.638 216C16.0178 228.171 21.0984 177.979 21.0984 177.979C21.0984 177.979 75.2582 203.829 45.638 216C75.2582 203.829 62.9973 257.575 62.9973 257.575Z" fill="#C4C4C4"/>
<path d="M28.2787 257.575C28.2787 257.575 16.0178 203.829 45.638 216C16.0178 203.829 62.9973 175.105 62.9973 175.105C62.9973 175.105 75.2582 228.171 45.638 216C75.2582 228.171 28.2787 257.575 28.2787 257.575Z" fill="#C4C4C4"/>
<path d="M87.547 233.221C87.547 233.221 33.3689 245.384 45.638 216C33.3689 245.384 1 207.993 1 207.993C1 207.993 57.9071 186.616 45.638 216C57.9071 186.616 87.547 233.221 87.547 233.221Z" fill="#C4C4C4"/>
<path d="M1.30889 225.548C1.30889 225.548 38.8355 184.919 45.638 216C38.8355 184.919 91 216 91 216C91 216 52.4406 247.081 45.638 216C52.4406 247.081 1.30889 225.548 1.30889 225.548Z" fill="#C4C4C4"/>
<path d="M45.638 261C45.638 261 14.3073 222.748 45.638 216C14.3073 222.748 45.638 171 45.638 171C45.638 171 76.9687 209.252 45.638 216C76.9687 209.252 45.638 261 45.638 261Z" fill="#C4C4C4"/>
<path d="M21.0984 253.847C21.0984 253.847 18.6738 198.794 45.638 216C18.6738 198.794 77.7138 184.18 77.7138 184.18C77.7138 184.18 72.6023 233.206 45.638 216C72.6023 233.206 21.0984 253.847 21.0984 253.847Z" fill="#C4C4C4"/>
<path d="M77.7138 247.82C77.7138 247.82 28.294 242.749 45.638 216C28.294 242.749 7.48684 191.656 7.48684 191.656C7.48684 191.656 62.982 189.251 45.638 216C62.982 189.251 77.7138 247.82 77.7138 247.82Z" fill="#C4C4C4"/>
<path d="M8.3665 241.65C8.3665 241.65 27.3635 189.868 45.638 216C27.3635 189.868 87.547 198.779 87.547 198.779C87.547 198.779 63.9125 242.132 45.638 216C63.9125 242.132 8.3665 241.65 8.3665 241.65Z" fill="#C4C4C4"/>
<path d="M62.9973 257.575C62.9973 257.575 19.2955 234.129 45.638 216C19.2955 234.129 21.0984 177.979 21.0984 177.979C21.0984 177.979 71.9806 197.871 45.638 216C71.9806 197.871 62.9973 257.575 62.9973 257.575Z" fill="#C4C4C4"/>
<path d="M28.2787 257.575C28.2787 257.575 14.089 210.341 45.638 216C14.089 210.341 62.9973 175.105 62.9973 175.105C62.9973 175.105 77.187 221.659 45.638 216C77.187 221.659 28.2787 257.575 28.2787 257.575Z" fill="#C4C4C4"/>
<path d="M87.547 233.221C87.547 233.221 39.933 247.297 45.638 216C39.933 247.297 1 207.993 1 207.993C1 207.993 51.343 184.703 45.638 216C51.343 184.703 87.547 233.221 87.547 233.221Z" fill="#C4C4C4"/>
<path d="M1.30889 225.548C1.30889 225.548 45.638 184.195 45.638 216M1.30889 225.548C1.30889 225.548 45.638 247.805 45.638 216M1.30889 225.548C1.30889 225.548 38.8355 184.919 45.638 216M1.30889 225.548C1.30889 225.548 52.4406 247.081 45.638 216M45.638 216C45.638 247.805 91 216 91 216M45.638 216C45.638 184.195 91 216 91 216M45.638 216C13.5774 216 45.638 261 45.638 261M45.638 216C77.6987 216 45.638 171 45.638 171M45.638 216C77.6987 216 45.638 261 45.638 261M45.638 216C13.5774 216 45.638 171 45.638 171M45.638 216C22.9677 193.511 21.0984 253.847 21.0984 253.847M45.638 216C68.3083 238.489 77.7138 184.18 77.7138 184.18M45.638 216C68.3083 238.489 21.0984 253.847 21.0984 253.847M45.638 216C22.9677 193.511 77.7138 184.18 77.7138 184.18M45.638 216C22.9677 238.489 77.7138 247.82 77.7138 247.82M45.638 216C68.3083 193.511 7.48684 191.656 7.48684 191.656M45.638 216C68.3083 193.511 77.7138 247.82 77.7138 247.82M45.638 216C22.9677 238.489 7.48684 191.656 7.48684 191.656M45.638 216C33.3689 186.616 8.3665 241.65 8.3665 241.65M45.638 216C57.9071 245.384 87.547 198.779 87.547 198.779M45.638 216C57.9071 245.384 8.3665 241.65 8.3665 241.65M45.638 216C33.3689 186.616 87.547 198.779 87.547 198.779M45.638 216C16.0178 228.171 62.9973 257.575 62.9973 257.575M45.638 216C75.2582 203.829 21.0984 177.979 21.0984 177.979M45.638 216C75.2582 203.829 62.9973 257.575 62.9973 257.575M45.638 216C16.0178 228.171 21.0984 177.979 21.0984 177.979M45.638 216C16.0178 203.829 28.2787 257.575 28.2787 257.575M45.638 216C75.2582 228.171 62.9973 175.105 62.9973 175.105M45.638 216C75.2582 228.171 28.2787 257.575 28.2787 257.575M45.638 216C16.0178 203.829 62.9973 175.105 62.9973 175.105M45.638 216C33.3689 245.384 87.547 233.221 87.547 233.221M45.638 216C57.9071 186.616 1 207.993 1 207.993M45.638 216C57.9071 186.616 87.547 233.221 87.547 233.221M45.638 216C33.3689 245.384 1 207.993 1 207.993M45.638 216C52.4406 247.081 91 216 91 216M45.638 216C38.8355 184.919 91 216 91 216M45.638 216C14.3073 222.748 45.638 261 45.638 261M45.638 216C76.9687 209.252 45.638 171 45.638 171M45.638 216C76.9687 209.252 45.638 261 45.638 261M45.638 216C14.3073 222.748 45.638 171 45.638 171M45.638 216C18.6738 198.794 21.0984 253.847 21.0984 253.847M45.638 216C72.6023 233.206 77.7138 184.18 77.7138 184.18M45.638 216C72.6023 233.206 21.0984 253.847 21.0984 253.847M45.638 216C18.6738 198.794 77.7138 184.18 77.7138 184.18M45.638 216C28.294 242.749 77.7138 247.82 77.7138 247.82M45.638 216C62.982 189.251 7.48684 191.656 7.48684 191.656M45.638 216C62.982 189.251 77.7138 247.82 77.7138 247.82M45.638 216C28.294 242.749 7.48684 191.656 7.48684 191.656M45.638 216C27.3635 189.868 8.3665 241.65 8.3665 241.65M45.638 216C63.9125 242.132 87.547 198.779 87.547 198.779M45.638 216C63.9125 242.132 8.3665 241.65 8.3665 241.65M45.638 216C27.3635 189.868 87.547 198.779 87.547 198.779M45.638 216C19.2955 234.129 62.9973 257.575 62.9973 257.575M45.638 216C71.9806 197.871 21.0984 177.979 21.0984 177.979M45.638 216C71.9806 197.871 62.9973 257.575 62.9973 257.575M45.638 216C19.2955 234.129 21.0984 177.979 21.0984 177.979M45.638 216C14.089 210.341 28.2787 257.575 28.2787 257.575M45.638 216C77.187 221.659 62.9973 175.105 62.9973 175.105M45.638 216C77.187 221.659 28.2787 257.575 28.2787 257.575M45.638 216C14.089 210.341 62.9973 175.105 62.9973 175.105M45.638 216C39.933 247.297 87.547 233.221 87.547 233.221M45.638 216C51.343 184.703 1 207.993 1 207.993M45.638 216C51.343 184.703 87.547 233.221 87.547 233.221M45.638 216C39.933 247.297 1 207.993 1 207.993" stroke="#6F5087"/>
<path d="M31.6658 118.581C31.6658 118.581 127.22 29.4429 127.22 98C127.22 29.4429 225 98.0001 225 98.0001C225 98.0001 127.22 166.557 127.22 98C127.22 166.557 31.6658 118.581 31.6658 118.581Z" fill="#C4C4C4"/>
<path d="M127.22 195C127.22 195 58.1112 98 127.22 98C58.1112 98 127.22 1 127.22 1C127.22 1 196.328 98 127.22 98C196.328 98 127.22 195 127.22 195Z" fill="#C4C4C4"/>
<path d="M74.3231 179.581C74.3231 179.581 78.3526 49.5228 127.22 98C78.3526 49.5228 196.361 29.4107 196.361 29.4107C196.361 29.4107 176.087 146.477 127.22 98C176.087 146.477 74.3231 179.581 74.3231 179.581Z" fill="#C4C4C4"/>
<path d="M196.361 166.589C196.361 166.589 78.3526 146.477 127.22 98C78.3526 146.477 44.9827 45.5255 44.9827 45.5255C44.9827 45.5255 176.087 49.5228 127.22 98C176.087 49.5228 196.361 166.589 196.361 166.589Z" fill="#C4C4C4"/>
<path d="M46.8789 153.29C46.8789 153.29 100.773 34.6615 127.22 98C100.773 34.6615 217.557 60.8797 217.557 60.8797C217.557 60.8797 153.666 161.339 127.22 98C153.666 161.339 46.8789 153.29 46.8789 153.29Z" fill="#C4C4C4"/>
<path d="M164.639 187.616C164.639 187.616 63.3718 124.236 127.22 98C63.3718 124.236 74.3231 16.0426 74.3231 16.0426C74.3231 16.0426 191.068 71.7643 127.22 98C191.068 71.7643 164.639 187.616 164.639 187.616Z" fill="#C4C4C4"/>
<path d="M89.8009 187.616C89.8009 187.616 63.3718 71.7643 127.22 98C63.3718 71.7643 164.639 9.84864 164.639 9.84864C164.639 9.84864 191.068 124.236 127.22 98C191.068 124.236 89.8009 187.616 89.8009 187.616Z" fill="#C4C4C4"/>
<path d="M217.557 135.12C217.557 135.12 100.773 161.339 127.22 98C100.773 161.339 31 80.7396 31 80.7396C31 80.7396 153.666 34.6615 127.22 98C153.666 34.6615 217.557 135.12 217.557 135.12Z" fill="#C4C4C4"/>
<path d="M31.6658 118.581C31.6658 118.581 112.556 31.0038 127.22 98C112.556 31.0038 225 98.0001 225 98.0001C225 98.0001 141.883 164.996 127.22 98C141.883 164.996 31.6658 118.581 31.6658 118.581Z" fill="#C4C4C4"/>
<path d="M127.22 195C127.22 195 59.6847 112.546 127.22 98C59.6847 112.546 127.22 1 127.22 1C127.22 1 194.755 83.4537 127.22 98C194.755 83.4537 127.22 195 127.22 195Z" fill="#C4C4C4"/>
<path d="M74.3231 179.581C74.3231 179.581 69.0968 60.9123 127.22 98C69.0968 60.9123 196.361 29.4107 196.361 29.4107C196.361 29.4107 185.343 135.088 127.22 98C185.343 135.088 74.3231 179.581 74.3231 179.581Z" fill="#C4C4C4"/>
<path d="M196.361 166.589C196.361 166.589 89.8338 155.659 127.22 98C89.8338 155.659 44.9827 45.5255 44.9827 45.5255C44.9827 45.5255 164.606 40.3408 127.22 98C164.606 40.3408 196.361 166.589 196.361 166.589Z" fill="#C4C4C4"/>
<path d="M46.8789 153.29C46.8789 153.29 87.8281 41.6703 127.22 98C87.8281 41.6703 217.557 60.8797 217.557 60.8797C217.557 60.8797 166.611 154.33 127.22 98C166.611 154.33 46.8789 153.29 46.8789 153.29Z" fill="#C4C4C4"/>
<path d="M164.639 187.616C164.639 187.616 70.4369 137.077 127.22 98C70.4369 137.077 74.3231 16.0426 74.3231 16.0426C74.3231 16.0426 184.003 58.9227 127.22 98C184.003 58.9227 164.639 187.616 164.639 187.616Z" fill="#C4C4C4"/>
<path d="M89.8009 187.616C89.8009 187.616 59.2141 85.8007 127.22 98C59.2141 85.8007 164.639 9.84864 164.639 9.84864C164.639 9.84864 195.225 110.199 127.22 98C195.225 110.199 89.8009 187.616 89.8009 187.616Z" fill="#C4C4C4"/>
<path d="M217.557 135.12C217.557 135.12 114.922 165.463 127.22 98C114.922 165.463 31 80.7396 31 80.7396C31 80.7396 139.517 30.537 127.22 98C139.517 30.537 217.557 135.12 217.557 135.12Z" fill="#C4C4C4"/>
<path d="M31.6658 118.581C31.6658 118.581 127.22 29.4429 127.22 98M31.6658 118.581C31.6658 118.581 127.22 166.557 127.22 98M31.6658 118.581C31.6658 118.581 112.556 31.0038 127.22 98M31.6658 118.581C31.6658 118.581 141.883 164.996 127.22 98M127.22 98C127.22 166.557 225 98.0001 225 98.0001M127.22 98C127.22 29.4429 225 98.0001 225 98.0001M127.22 98C58.1112 98 127.22 195 127.22 195M127.22 98C196.328 98 127.22 1 127.22 1M127.22 98C196.328 98 127.22 195 127.22 195M127.22 98C58.1112 98 127.22 1 127.22 1M127.22 98C78.3526 49.5228 74.3231 179.581 74.3231 179.581M127.22 98C176.087 146.477 196.361 29.4107 196.361 29.4107M127.22 98C176.087 146.477 74.3231 179.581 74.3231 179.581M127.22 98C78.3526 49.5228 196.361 29.4107 196.361 29.4107M127.22 98C78.3526 146.477 196.361 166.589 196.361 166.589M127.22 98C176.087 49.5228 44.9827 45.5255 44.9827 45.5255M127.22 98C176.087 49.5228 196.361 166.589 196.361 166.589M127.22 98C78.3526 146.477 44.9827 45.5255 44.9827 45.5255M127.22 98C100.773 34.6615 46.8789 153.29 46.8789 153.29M127.22 98C153.666 161.339 217.557 60.8797 217.557 60.8797M127.22 98C153.666 161.339 46.8789 153.29 46.8789 153.29M127.22 98C100.773 34.6615 217.557 60.8797 217.557 60.8797M127.22 98C63.3718 124.236 164.639 187.616 164.639 187.616M127.22 98C191.068 71.7643 74.3231 16.0426 74.3231 16.0426M127.22 98C191.068 71.7643 164.639 187.616 164.639 187.616M127.22 98C63.3718 124.236 74.3231 16.0426 74.3231 16.0426M127.22 98C63.3718 71.7643 89.8009 187.616 89.8009 187.616M127.22 98C191.068 124.236 164.639 9.84864 164.639 9.84864M127.22 98C191.068 124.236 89.8009 187.616 89.8009 187.616M127.22 98C63.3718 71.7643 164.639 9.84864 164.639 9.84864M127.22 98C100.773 161.339 217.557 135.12 217.557 135.12M127.22 98C153.666 34.6615 31 80.7396 31 80.7396M127.22 98C153.666 34.6615 217.557 135.12 217.557 135.12M127.22 98C100.773 161.339 31 80.7396 31 80.7396M127.22 98C141.883 164.996 225 98.0001 225 98.0001M127.22 98C112.556 31.0038 225 98.0001 225 98.0001M127.22 98C59.6847 112.546 127.22 195 127.22 195M127.22 98C194.755 83.4537 127.22 1 127.22 1M127.22 98C194.755 83.4537 127.22 195 127.22 195M127.22 98C59.6847 112.546 127.22 1 127.22 1M127.22 98C69.0968 60.9123 74.3231 179.581 74.3231 179.581M127.22 98C185.343 135.088 196.361 29.4107 196.361 29.4107M127.22 98C185.343 135.088 74.3231 179.581 74.3231 179.581M127.22 98C69.0968 60.9123 196.361 29.4107 196.361 29.4107M127.22 98C89.8338 155.659 196.361 166.589 196.361 166.589M127.22 98C164.606 40.3408 44.9827 45.5255 44.9827 45.5255M127.22 98C164.606 40.3408 196.361 166.589 196.361 166.589M127.22 98C89.8338 155.659 44.9827 45.5255 44.9827 45.5255M127.22 98C87.8281 41.6703 46.8789 153.29 46.8789 153.29M127.22 98C166.611 154.33 217.557 60.8797 217.557 60.8797M127.22 98C166.611 154.33 46.8789 153.29 46.8789 153.29M127.22 98C87.8281 41.6703 217.557 60.8797 217.557 60.8797M127.22 98C70.4369 137.077 164.639 187.616 164.639 187.616M127.22 98C184.003 58.9227 74.3231 16.0426 74.3231 16.0426M127.22 98C184.003 58.9227 164.639 187.616 164.639 187.616M127.22 98C70.4369 137.077 74.3231 16.0426 74.3231 16.0426M127.22 98C59.2141 85.8007 89.8009 187.616 89.8009 187.616M127.22 98C195.225 110.199 164.639 9.84864 164.639 9.84864M127.22 98C195.225 110.199 89.8009 187.616 89.8009 187.616M127.22 98C59.2141 85.8007 164.639 9.84864 164.639 9.84864M127.22 98C114.922 165.463 217.557 135.12 217.557 135.12M127.22 98C139.517 30.537 31 80.7396 31 80.7396M127.22 98C139.517 30.537 217.557 135.12 217.557 135.12M127.22 98C114.922 165.463 31 80.7396 31 80.7396" stroke="#379CBC"/>
<path d="M177.429 222.761C177.429 222.761 238.997 165.327 238.997 209.5C238.997 165.327 302 209.5 302 209.5C302 209.5 238.997 253.673 238.997 209.5C238.997 253.673 177.429 222.761 177.429 222.761Z" fill="#C4C4C4"/>
<path d="M238.997 272C238.997 272 194.469 209.5 238.997 209.5C194.469 209.5 238.997 147 238.997 147C238.997 147 283.526 209.5 238.997 209.5C283.526 209.5 238.997 272 238.997 272Z" fill="#C4C4C4"/>
<path d="M204.914 262.065C204.914 262.065 207.511 178.265 238.997 209.5C207.511 178.265 283.547 165.306 283.547 165.306C283.547 165.306 270.484 240.735 238.997 209.5C270.484 240.735 204.914 262.065 204.914 262.065Z" fill="#C4C4C4"/>
<path d="M283.547 253.694C283.547 253.694 207.511 240.735 238.997 209.5C207.511 240.735 186.009 175.689 186.009 175.689C186.009 175.689 270.484 178.265 238.997 209.5C270.484 178.265 283.547 253.694 283.547 253.694Z" fill="#C4C4C4"/>
<path d="M187.231 245.125C187.231 245.125 221.957 168.689 238.997 209.5C221.957 168.689 297.204 185.582 297.204 185.582C297.204 185.582 256.038 250.311 238.997 209.5C256.038 250.311 187.231 245.125 187.231 245.125Z" fill="#C4C4C4"/>
<path d="M263.107 267.242C263.107 267.242 197.858 226.404 238.997 209.5C197.858 226.404 204.914 156.692 204.914 156.692C204.914 156.692 280.136 192.596 238.997 209.5C280.136 192.596 263.107 267.242 263.107 267.242Z" fill="#C4C4C4"/>
<path d="M214.887 267.242C214.887 267.242 197.858 192.596 238.997 209.5C197.858 192.596 263.107 152.701 263.107 152.701C263.107 152.701 280.136 226.404 238.997 209.5C280.136 226.404 214.887 267.242 214.887 267.242Z" fill="#C4C4C4"/>
<path d="M297.204 233.418C297.204 233.418 221.957 250.311 238.997 209.5C221.957 250.311 177 198.379 177 198.379C177 198.379 256.038 168.689 238.997 209.5C256.038 168.689 297.204 233.418 297.204 233.418Z" fill="#C4C4C4"/>
<path d="M177.429 222.761C177.429 222.761 229.549 166.332 238.997 209.5C229.549 166.332 302 209.5 302 209.5C302 209.5 248.445 252.668 238.997 209.5C248.445 252.668 177.429 222.761 177.429 222.761Z" fill="#C4C4C4"/>
<path d="M238.997 272C238.997 272 195.482 218.873 238.997 209.5C195.482 218.873 238.997 147 238.997 147C238.997 147 282.512 200.127 238.997 209.5C282.512 200.127 238.997 272 238.997 272Z" fill="#C4C4C4"/>
<path d="M204.914 262.065C204.914 262.065 201.547 185.603 238.997 209.5C201.547 185.603 283.547 165.306 283.547 165.306C283.547 165.306 276.448 233.397 238.997 209.5C276.448 233.397 204.914 262.065 204.914 262.065Z" fill="#C4C4C4"/>
<path d="M283.547 253.694C283.547 253.694 214.908 246.652 238.997 209.5C214.908 246.652 186.009 175.689 186.009 175.689C186.009 175.689 263.086 172.348 238.997 209.5C263.086 172.348 283.547 253.694 283.547 253.694Z" fill="#C4C4C4"/>
<path d="M187.231 245.125C187.231 245.125 213.616 173.205 238.997 209.5C213.616 173.205 297.204 185.582 297.204 185.582C297.204 185.582 264.378 245.795 238.997 209.5C264.378 245.795 187.231 245.125 187.231 245.125Z" fill="#C4C4C4"/>
<path d="M263.107 267.242C263.107 267.242 202.41 234.679 238.997 209.5C202.41 234.679 204.914 156.692 204.914 156.692C204.914 156.692 275.584 184.321 238.997 209.5C275.584 184.321 263.107 267.242 263.107 267.242Z" fill="#C4C4C4"/>
<path d="M214.887 267.242C214.887 267.242 195.179 201.64 238.997 209.5C195.179 201.64 263.107 152.701 263.107 152.701C263.107 152.701 282.815 217.36 238.997 209.5C282.815 217.36 214.887 267.242 214.887 267.242Z" fill="#C4C4C4"/>
<path d="M297.204 233.418C297.204 233.418 231.074 252.968 238.997 209.5C231.074 252.968 177 198.379 177 198.379C177 198.379 246.921 166.032 238.997 209.5C246.921 166.032 297.204 233.418 297.204 233.418Z" fill="#C4C4C4"/>
<path d="M177.429 222.761C177.429 222.761 238.997 165.327 238.997 209.5M177.429 222.761C177.429 222.761 238.997 253.673 238.997 209.5M177.429 222.761C177.429 222.761 229.549 166.332 238.997 209.5M177.429 222.761C177.429 222.761 248.445 252.668 238.997 209.5M238.997 209.5C238.997 253.673 302 209.5 302 209.5M238.997 209.5C238.997 165.327 302 209.5 302 209.5M238.997 209.5C194.469 209.5 238.997 272 238.997 272M238.997 209.5C283.526 209.5 238.997 147 238.997 147M238.997 209.5C283.526 209.5 238.997 272 238.997 272M238.997 209.5C194.469 209.5 238.997 147 238.997 147M238.997 209.5C207.511 178.265 204.914 262.065 204.914 262.065M238.997 209.5C270.484 240.735 283.547 165.306 283.547 165.306M238.997 209.5C270.484 240.735 204.914 262.065 204.914 262.065M238.997 209.5C207.511 178.265 283.547 165.306 283.547 165.306M238.997 209.5C207.511 240.735 283.547 253.694 283.547 253.694M238.997 209.5C270.484 178.265 186.009 175.689 186.009 175.689M238.997 209.5C270.484 178.265 283.547 253.694 283.547 253.694M238.997 209.5C207.511 240.735 186.009 175.689 186.009 175.689M238.997 209.5C221.957 168.689 187.231 245.125 187.231 245.125M238.997 209.5C256.038 250.311 297.204 185.582 297.204 185.582M238.997 209.5C256.038 250.311 187.231 245.125 187.231 245.125M238.997 209.5C221.957 168.689 297.204 185.582 297.204 185.582M238.997 209.5C197.858 226.404 263.107 267.242 263.107 267.242M238.997 209.5C280.136 192.596 204.914 156.692 204.914 156.692M238.997 209.5C280.136 192.596 263.107 267.242 263.107 267.242M238.997 209.5C197.858 226.404 204.914 156.692 204.914 156.692M238.997 209.5C197.858 192.596 214.887 267.242 214.887 267.242M238.997 209.5C280.136 226.404 263.107 152.701 263.107 152.701M238.997 209.5C280.136 226.404 214.887 267.242 214.887 267.242M238.997 209.5C197.858 192.596 263.107 152.701 263.107 152.701M238.997 209.5C221.957 250.311 297.204 233.418 297.204 233.418M238.997 209.5C256.038 168.689 177 198.379 177 198.379M238.997 209.5C256.038 168.689 297.204 233.418 297.204 233.418M238.997 209.5C221.957 250.311 177 198.379 177 198.379M238.997 209.5C248.445 252.668 302 209.5 302 209.5M238.997 209.5C229.549 166.332 302 209.5 302 209.5M238.997 209.5C195.482 218.873 238.997 272 238.997 272M238.997 209.5C282.512 200.127 238.997 147 238.997 147M238.997 209.5C282.512 200.127 238.997 272 238.997 272M238.997 209.5C195.482 218.873 238.997 147 238.997 147M238.997 209.5C201.547 185.603 204.914 262.065 204.914 262.065M238.997 209.5C276.448 233.397 283.547 165.306 283.547 165.306M238.997 209.5C276.448 233.397 204.914 262.065 204.914 262.065M238.997 209.5C201.547 185.603 283.547 165.306 283.547 165.306M238.997 209.5C214.908 246.652 283.547 253.694 283.547 253.694M238.997 209.5C263.086 172.348 186.009 175.689 186.009 175.689M238.997 209.5C263.086 172.348 283.547 253.694 283.547 253.694M238.997 209.5C214.908 246.652 186.009 175.689 186.009 175.689M238.997 209.5C213.616 173.205 187.231 245.125 187.231 245.125M238.997 209.5C264.378 245.795 297.204 185.582 297.204 185.582M238.997 209.5C264.378 245.795 187.231 245.125 187.231 245.125M238.997 209.5C213.616 173.205 297.204 185.582 297.204 185.582M238.997 209.5C202.41 234.679 263.107 267.242 263.107 267.242M238.997 209.5C275.584 184.321 204.914 156.692 204.914 156.692M238.997 209.5C275.584 184.321 263.107 267.242 263.107 267.242M238.997 209.5C202.41 234.679 204.914 156.692 204.914 156.692M238.997 209.5C195.179 201.64 214.887 267.242 214.887 267.242M238.997 209.5C282.815 217.36 263.107 152.701 263.107 152.701M238.997 209.5C282.815 217.36 214.887 267.242 214.887 267.242M238.997 209.5C195.179 201.64 263.107 152.701 263.107 152.701M238.997 209.5C231.074 252.968 297.204 233.418 297.204 233.418M238.997 209.5C246.921 166.032 177 198.379 177 198.379M238.997 209.5C246.921 166.032 297.204 233.418 297.204 233.418M238.997 209.5C231.074 252.968 177 198.379 177 198.379" stroke="#CF2828"/>
</svg>
