<svg width="226" height="9" viewBox="0 0 226 9" fill="none" xmlns="http://www.w3.org/2000/svg">
<path d="M54.6023 9H71.5628L86.5446 0H69.0187L54.6023 9Z" fill="#E74FD7"/>
<path d="M81.7391 9H98.6996L113.681 0H96.1555L81.7391 9Z" fill="#E74FD7"/>
<path d="M0.894043 9H17.8546L32.8363 0H15.3105L0.894043 9Z" fill="#CF8C8C" fill-opacity="0.26"/>
<path d="M28.0309 9H44.9914L59.9732 0H42.4473L28.0309 9Z" fill="#CF8C8C" fill-opacity="0.26"/>
<path d="M171.939 0H154.979L139.997 8.85384H157.523L171.939 0Z" fill="#E74FD7"/>
<path d="M140.205 0H124.393L110.426 8.85384H126.765L140.205 0Z" fill="#E74FD7"/>
<path d="M225.647 0H208.687L193.705 8.85384H211.231L225.647 0Z" fill="#CF8C8C" fill-opacity="0.26"/>
<path d="M198.51 0H181.55L166.568 8.85384H184.094L198.51 0Z" fill="#CF8C8C" fill-opacity="0.26"/>
</svg>
