<svg width="378" height="19" viewBox="0 0 378 19" fill="none" xmlns="http://www.w3.org/2000/svg">
<path d="M90.1781 18.4292H118.655L143.81 0H114.384L90.1781 18.4292Z" fill="#7A746C"/>
<path d="M135.742 18.4292H164.219L189.374 0H159.947L135.742 18.4292Z" fill="#7A746C"/>
<path d="M0 18.4292H28.4773L53.6322 0H24.2057L0 18.4292Z" fill="#CF8C8C" fill-opacity="0.26"/>
<path d="M45.5637 18.4292H74.041L99.1959 0H69.7694L45.5637 18.4292Z" fill="#CF8C8C" fill-opacity="0.26"/>
<path d="M287.191 0H258.713L233.558 18.1299H262.985L287.191 0Z" fill="#7A746C"/>
<path d="M233.908 0H207.36L183.908 18.1299H211.342L233.908 0Z" fill="#7A746C"/>
<path d="M377.369 0H348.891L323.736 18.1299H353.163L377.369 0Z" fill="#CF8C8C" fill-opacity="0.26"/>
<path d="M331.805 0H303.328L278.173 18.1299H307.599L331.805 0Z" fill="#CF8C8C" fill-opacity="0.26"/>
</svg>
