<svg width="378" height="19" viewBox="0 0 378 19" fill="none" xmlns="http://www.w3.org/2000/svg">
<path d="M107.356 18.4292H135.833L160.988 0H131.562L107.356 18.4292Z" fill="#CF8C8C" fill-opacity="0.26"/>
<path d="M152.92 18.4292H181.397L206.552 0H177.126L152.92 18.4292Z" fill="#CF8C8C" fill-opacity="0.26"/>
<path d="M90.2698 18.4292H118.747L143.902 0H114.475L90.2698 18.4292Z" fill="#7A746C"/>
<path d="M135.833 18.4292H164.311L189.466 0H160.039L135.833 18.4292Z" fill="#7A746C"/>
<path d="M17.1781 18.4292H45.6554L70.8103 0H41.3838L17.1781 18.4292Z" fill="#7A746C"/>
<path d="M62.7418 18.4292H91.2191L116.374 0H86.9475L62.7418 18.4292Z" fill="#7A746C"/>
<path d="M0.0917969 18.4292H28.5691L53.724 0H24.2975L0.0917969 18.4292Z" fill="#CF8C8C" fill-opacity="0.26"/>
<path d="M45.6555 18.4292H74.1328L99.2877 0H69.8612L45.6555 18.4292Z" fill="#CF8C8C" fill-opacity="0.26"/>
<path d="M287.282 0H258.805L233.65 18.1299H263.077L287.282 0Z" fill="#7A746C"/>
<path d="M234 0H207.451L184 18.1299H211.434L234 0Z" fill="#7A746C"/>
<path d="M360.374 0H331.897L306.742 18.1299H336.168L360.374 0Z" fill="#7A746C"/>
<path d="M314.81 0H286.333L261.178 18.1299H290.605L314.81 0Z" fill="#7A746C"/>
<path d="M377.46 0H348.983L323.828 18.1299H353.255L377.46 0Z" fill="#CF8C8C" fill-opacity="0.26"/>
<path d="M331.897 0H303.419L278.264 18.1299H307.691L331.897 0Z" fill="#CF8C8C" fill-opacity="0.26"/>
</svg>
