<svg width="13" height="12" viewBox="0 0 13 12" fill="none" xmlns="http://www.w3.org/2000/svg">
<path d="M4.46942 1.16374C4.84769 1.59034 5.19988 2.11257 5.51699 2.72155C5.37356 2.07781 5.31728 1.48318 5.3691 0.934441C5.67175 1.47451 5.95948 2.09786 6.18494 2.81235C6.15777 2.05007 6.22244 1.36743 6.39763 0.770767C6.59843 1.40589 6.75846 2.1654 6.8209 3.0176C6.94751 2.21657 7.15614 1.52561 7.48742 0.934441C7.541 1.50184 7.55551 2.11831 7.49002 2.7874C7.74234 2.16934 8.04277 1.63889 8.41803 1.18864C8.35039 1.8751 8.21362 2.61356 7.93417 3.40761C8.38974 2.69925 8.8763 2.13095 9.4445 1.688C9.25536 2.24619 9.00995 2.82321 8.66295 3.41919C9.15713 2.94284 9.65824 2.5627 10.1887 2.27315C9.83649 2.89077 9.40187 3.51199 8.80726 4.13404C9.5268 3.65466 10.217 3.3155 10.9237 3.10099C10.533 3.5304 10.0907 3.94417 9.55672 4.33907C10.193 4.09649 10.7984 3.94366 11.4071 3.87184C10.8371 4.31278 10.1952 4.70832 9.41002 5.04987C10.2546 4.88467 11.0143 4.83938 11.753 4.89966C11.2096 5.16281 10.6263 5.37845 9.96389 5.54021C10.6471 5.55843 11.2654 5.64618 11.8565 5.79616C11.1484 6.00076 10.397 6.11796 9.53524 6.13455C10.3792 6.30201 11.0954 6.55033 11.753 6.86881C11.1426 6.91862 10.5179 6.89674 9.84285 6.79475C10.463 7.07041 10.9952 7.38504 11.4796 7.73388C10.7413 7.67102 10.0034 7.49216 9.20501 7.18146C9.91375 7.65753 10.47 8.1633 10.9471 8.69331C10.4713 8.55806 10.0133 8.36769 9.55255 8.11638C9.95897 8.53999 10.29 8.96525 10.5516 9.39111C9.80458 9.02601 9.053 8.49604 8.30067 7.77781C8.84862 8.57805 9.19538 9.34525 9.4445 10.0805C9.09106 9.80495 8.76922 9.48114 8.46677 9.10538C8.64607 9.6018 8.7642 10.0762 8.82515 10.5292C8.26945 9.91243 7.78082 9.13345 7.37349 8.17025C7.56088 9.15954 7.56203 10.044 7.48742 10.834C7.20434 10.3289 7.01082 9.75126 6.8815 9.09442C6.8172 9.77058 6.68435 10.3808 6.52301 10.9302C6.30291 10.272 6.23316 9.52167 6.27086 8.66953C6.03517 9.50516 5.7117 10.2227 5.3691 10.834C5.31552 10.2666 5.37751 9.65055 5.53192 8.98191C5.19068 9.59952 4.81376 10.1296 4.43849 10.5798C4.50614 9.89337 4.75496 9.15547 5.14491 8.36198C4.57884 9.06979 3.98023 9.63752 3.41202 10.0805C3.59611 9.5372 3.91 8.97647 4.33139 8.39786C3.7584 8.86286 3.18896 9.23208 2.6569 9.51458C3.00199 8.90443 3.54003 8.2913 4.23127 7.6773C3.41259 8.14949 2.62144 8.48097 1.91414 8.68807C2.30786 8.25164 2.83169 7.83166 3.46268 7.4312C2.7384 7.67277 2.05731 7.82491 1.44946 7.89663C2.01947 7.45569 2.77334 7.06072 3.66906 6.71972C2.71398 6.88437 1.84221 6.92909 1.10349 6.86881C1.64691 6.60566 2.30674 6.39041 3.05804 6.22909C2.28597 6.21042 1.59111 6.12229 1 5.97231C1.70814 5.76771 2.57161 5.65107 3.54384 5.63504C2.58936 5.46703 1.76116 5.21814 1.10349 4.89966C1.71387 4.84985 2.41509 4.87212 3.17908 4.97455C2.46999 4.69845 1.86131 4.38343 1.37694 4.03459C2.11541 4.09747 2.96555 4.27697 3.87469 4.58838C3.05772 4.11325 2.39064 3.60859 1.91414 3.0804C2.58906 3.27802 3.34032 3.5894 4.119 4.02824C3.53461 3.48121 3.07966 2.93088 2.7409 2.37955C3.2929 2.64933 3.84737 3.00912 4.4028 3.46837C3.94537 2.85494 3.60636 2.26153 3.41202 1.688C3.97453 2.12651 4.56683 2.68786 5.12787 3.38634C4.76614 2.5941 4.55256 1.8544 4.46942 1.16374Z" fill="#C4C4C4"/>
<path d="M6.64626 5.88533C6.16508 3.82523 5.39536 2.20799 4.46942 1.16374C4.63452 2.53513 5.31384 4.09991 6.64626 5.88533ZM6.64626 5.88533C5.77195 3.92319 5.24119 2.28898 5.3691 0.934441C6.0449 2.14037 6.64626 3.76153 6.64626 5.88533ZM6.64626 5.88533C7.04283 3.84669 6.80352 2.05462 6.39763 0.770767C6.01248 2.08253 6.1615 3.80989 6.64626 5.88533ZM6.64626 5.88533C7.05281 3.79542 7.52217 2.26353 8.41803 1.18864C8.2846 2.54271 7.88222 4.09913 6.64626 5.88533ZM6.64626 5.88533C7.52057 3.92319 8.32369 2.56173 9.4445 1.688C9.00504 2.98493 8.26178 4.38357 6.64626 5.88533ZM6.64626 5.88533C7.85876 4.13303 8.94281 2.95323 10.1887 2.27315C9.50595 3.47041 8.51346 4.68123 6.64626 5.88533ZM6.64626 5.88533C8.23513 4.40835 9.54805 3.51853 10.9237 3.10099C9.98315 4.13479 8.74313 5.07794 6.64626 5.88533ZM6.64626 5.88533C8.52347 4.67477 9.95595 4.04305 11.4071 3.87184C10.2827 4.74162 8.87893 5.43471 6.64626 5.88533ZM6.64626 5.88533C8.75704 5.07259 10.2959 4.78076 11.753 4.89966C10.4557 5.52787 8.93095 5.88533 6.64626 5.88533ZM6.64626 5.88533C8.89449 6.26325 10.4597 6.19975 11.8565 5.79616C10.4454 5.43812 8.87893 5.43471 6.64626 5.88533ZM6.64626 5.88533C8.75704 6.69808 10.2959 6.98771 11.753 6.86881C10.4557 6.2406 8.93095 5.88533 6.64626 5.88533ZM6.64626 5.88533C8.89449 6.26325 10.3233 6.90111 11.4796 7.73388C10.0229 7.60985 8.56778 7.03425 6.64626 5.88533ZM6.64626 5.88533C8.28311 7.40691 9.5364 8.29235 10.9471 8.69331C10.0074 7.64937 8.76058 6.69944 6.64626 5.88533ZM6.64626 5.88533C7.94853 7.63035 9.2569 8.75834 10.5516 9.39111C9.82614 8.21039 8.56778 7.03425 6.64626 5.88533ZM6.64626 5.88533C7.52057 7.84747 8.32369 9.20674 9.4445 10.0805C9.00504 8.78354 8.26178 7.38709 6.64626 5.88533ZM6.64626 5.88533C7.95225 7.63533 8.64328 9.17745 8.82515 10.5292C7.88289 9.4834 7.13345 7.97116 6.64626 5.88533ZM6.64626 5.88533C7.52057 7.84747 7.61533 9.47949 7.48742 10.834C6.81163 9.6281 6.64626 8.00913 6.64626 5.88533ZM6.64626 5.88533C6.23971 7.97524 6.08884 9.63177 6.52301 10.9302C6.90817 9.61847 7.13102 7.96078 6.64626 5.88533ZM6.64626 5.88533C5.77195 7.84747 5.24119 9.47949 5.3691 10.834C6.0449 9.6281 6.64626 8.00913 6.64626 5.88533ZM6.64626 5.88533C6.23971 7.97524 5.33435 9.50494 4.43849 10.5798C4.57192 9.22576 5.4103 7.67153 6.64626 5.88533ZM6.64626 5.88533C5.77195 7.84747 4.53283 9.20674 3.41202 10.0805C3.85148 8.78354 5.03074 7.38709 6.64626 5.88533ZM6.64626 5.88533C4.76905 7.09589 3.33761 8.31103 2.6569 9.51458C3.92707 8.84019 5.4103 7.67153 6.64626 5.88533ZM6.64626 5.88533C4.53548 6.69808 2.85406 7.64619 1.91414 8.68807C3.30932 8.27956 5.03074 7.38709 6.64626 5.88533ZM6.64626 5.88533C4.76905 7.09589 2.90058 7.72542 1.44946 7.89663C2.57382 7.02685 4.41359 6.33595 6.64626 5.88533ZM6.64626 5.88533C4.53548 6.69808 2.56064 6.98771 1.10349 6.86881C2.40078 6.2406 4.36157 5.88533 6.64626 5.88533ZM6.64626 5.88533C4.39803 5.50741 2.39684 5.56872 1 5.97231C2.41114 6.33035 4.41359 6.33595 6.64626 5.88533ZM6.64626 5.88533C4.53548 5.07259 2.56064 4.78076 1.10349 4.89966C2.40078 5.52787 4.36157 5.88533 6.64626 5.88533ZM6.64626 5.88533C4.39803 5.50741 2.53327 4.86736 1.37694 4.03459C2.8336 4.15862 4.72474 4.73641 6.64626 5.88533ZM6.64626 5.88533C4.53548 5.07259 2.85406 4.12228 1.91414 3.0804C3.30932 3.48891 5.03074 4.38357 6.64626 5.88533ZM6.64626 5.88533C5.34399 4.14031 4.03562 3.01232 2.7409 2.37955C3.46638 3.56028 4.72474 4.73641 6.64626 5.88533ZM6.64626 5.88533C5.77195 3.92319 4.53283 2.56173 3.41202 1.688C3.85148 2.98493 5.03074 4.38357 6.64626 5.88533ZM6.64626 5.88533C7.52057 3.92319 7.61533 2.28898 7.48742 0.934441C6.81163 2.14037 6.64626 3.76153 6.64626 5.88533Z" stroke="black" stroke-width="0.08"/>
</svg>
