<svg width="26" height="31" viewBox="0 0 26 31" fill="none" xmlns="http://www.w3.org/2000/svg">
<path d="M1.0268 30.5118C1.0268 30.5118 0.219139 11.7126 7.47189 10.4938C5.31578 8.51028 5.68303 4.90753 6.91489 1.27666C9.14244 1.82948 11.189 2.64924 12.5595 3.86077C13.943 2.54865 16.0747 1.63546 18.3899 1C19.6652 4.63312 20.1172 8.27854 18.0847 10.3427C25.1585 11.6385 24.9997 30.0862 24.9997 30.0862C24.9997 30.0862 17.5754 27.3385 12.8949 23.4026C8.35228 27.5022 1.0268 30.5118 1.0268 30.5118Z" fill="#9E9E9E"/>
<path d="M12.7001 12.0561C-0.126567 3.66592 1.0268 30.5118 1.0268 30.5118C1.0268 30.5118 25.5268 20.4463 12.7001 12.0561ZM12.7001 12.0561C0.169182 20.8964 24.9997 30.0862 24.9997 30.0862C24.9997 30.0862 25.2311 3.2158 12.7001 12.0561ZM12.7001 12.0561C16.7771 5.61039 12.3932 2.63624 6.91489 1.27666C5.07567 6.69772 5.16382 12.0561 12.7001 12.0561ZM12.7001 12.0561C8.33139 5.6519 12.8316 2.5256 18.3899 1C20.3254 6.51388 20.3646 12.0561 12.7001 12.0561Z" stroke="#DADADA" stroke-width="0.1"/>
</svg>
