<svg width="89" height="10" viewBox="0 0 89 10" fill="none" xmlns="http://www.w3.org/2000/svg">
<path d="M14.4688 4.71875V7H13.7461V1.3125H15.5898C15.8451 1.31771 16.0859 1.35807 16.3125 1.43359C16.5417 1.50911 16.7422 1.61849 16.9141 1.76172C17.0859 1.90495 17.2214 2.08203 17.3203 2.29297C17.4219 2.50391 17.4727 2.74609 17.4727 3.01953C17.4727 3.29297 17.4219 3.53516 17.3203 3.74609C17.2214 3.95443 17.0859 4.13021 16.9141 4.27344C16.7422 4.41667 16.5417 4.52604 16.3125 4.60156C16.0859 4.67708 15.8451 4.71615 15.5898 4.71875H14.4688ZM14.4688 4.125H15.5898C15.7565 4.1224 15.9102 4.09635 16.0508 4.04688C16.1914 3.99479 16.3138 3.92188 16.418 3.82813C16.5221 3.73438 16.6029 3.62109 16.6602 3.48828C16.7201 3.35287 16.75 3.19922 16.75 3.02734C16.75 2.85547 16.7201 2.70052 16.6602 2.5625C16.6029 2.42448 16.5221 2.30729 16.418 2.21094C16.3164 2.11458 16.194 2.04036 16.0508 1.98828C15.9102 1.9362 15.7565 1.90885 15.5898 1.90625H14.4688V4.125Z" fill="#C97676"/>
<path d="M21.2539 2.69531C21.3216 2.69531 21.3919 2.69792 21.4648 2.70313C21.5378 2.70573 21.6068 2.71224 21.6719 2.72266C21.7396 2.73047 21.8008 2.74089 21.8555 2.75391C21.9128 2.76693 21.9596 2.78125 21.9961 2.79688L21.8984 3.50391C21.7578 3.47266 21.6237 3.45052 21.4961 3.4375C21.3711 3.42188 21.2396 3.41406 21.1016 3.41406C20.763 3.41406 20.4883 3.49089 20.2773 3.64453C20.069 3.79818 19.9154 4.01302 19.8164 4.28906V7H19.0898V2.77344H19.7773L19.8125 3.44531C19.9844 3.21354 20.1901 3.03125 20.4297 2.89844C20.6719 2.76302 20.9466 2.69531 21.2539 2.69531Z" fill="#C97676"/>
<path d="M23.0859 4.84766C23.0859 4.54297 23.1302 4.26042 23.2188 4C23.3073 3.73698 23.4336 3.50912 23.5977 3.31641C23.7643 3.1237 23.9661 2.97266 24.2031 2.86328C24.4401 2.7513 24.707 2.69531 25.0039 2.69531C25.3034 2.69531 25.5716 2.7513 25.8086 2.86328C26.0482 2.97266 26.25 3.1237 26.4141 3.31641C26.5807 3.50912 26.7083 3.73698 26.7969 4C26.8854 4.26042 26.9297 4.54297 26.9297 4.84766V4.93359C26.9297 5.23828 26.8854 5.52083 26.7969 5.78125C26.7083 6.04167 26.5807 6.26823 26.4141 6.46094C26.25 6.65365 26.0495 6.80469 25.8125 6.91406C25.5755 7.02344 25.3086 7.07813 25.0117 7.07813C24.7122 7.07813 24.4427 7.02344 24.2031 6.91406C23.9661 6.80469 23.7643 6.65365 23.5977 6.46094C23.4336 6.26823 23.3073 6.04167 23.2188 5.78125C23.1302 5.52083 23.0859 5.23828 23.0859 4.93359V4.84766ZM23.8086 4.93359C23.8086 5.14193 23.8333 5.34115 23.8828 5.53125C23.9323 5.71875 24.0065 5.88412 24.1055 6.02734C24.207 6.17057 24.3333 6.28385 24.4844 6.36719C24.6354 6.45052 24.8112 6.49219 25.0117 6.49219C25.2096 6.49219 25.3828 6.45052 25.5312 6.36719C25.6823 6.28385 25.8073 6.17057 25.9062 6.02734C26.0078 5.88412 26.0833 5.71875 26.1328 5.53125C26.1823 5.34115 26.207 5.14193 26.207 4.93359V4.84766C26.207 4.64193 26.181 4.44531 26.1289 4.25781C26.0794 4.06771 26.0039 3.90104 25.9023 3.75781C25.8034 3.61458 25.6784 3.5013 25.5273 3.41797C25.3789 3.33203 25.2044 3.28906 25.0039 3.28906C24.8034 3.28906 24.6289 3.33203 24.4805 3.41797C24.332 3.5013 24.207 3.61458 24.1055 3.75781C24.0065 3.90104 23.9323 4.06771 23.8828 4.25781C23.8333 4.44531 23.8086 4.64193 23.8086 4.84766V4.93359Z" fill="#C97676"/>
<path d="M29.1719 7V3.33203H28.0078V2.77344H29.1719V2.47656C29.1719 2.20573 29.2109 1.96875 29.2891 1.76563C29.3698 1.5599 29.4818 1.38802 29.625 1.25C29.7708 1.11198 29.9453 1.00781 30.1484 0.9375C30.3516 0.867188 30.5781 0.832032 30.8281 0.832032C31 0.832032 31.1667 0.846355 31.3281 0.875C31.4922 0.903646 31.6602 0.940105 31.832 0.984375L31.7461 1.58203C31.6393 1.54557 31.5143 1.51432 31.3711 1.48828C31.2305 1.45964 31.0794 1.44531 30.918 1.44531C30.5794 1.44792 30.3242 1.53385 30.1523 1.70313C29.9831 1.8724 29.8984 2.13021 29.8984 2.47656V2.77344H31.5273V3.33203H29.8984V7H29.1719Z" fill="#C97676"/>
<path d="M33.0117 2.77344H35.1719V6.375H36.5508V7H33.0117V6.375H34.4492V3.40234H33.0117V2.77344ZM34.3555 1.66406C34.3555 1.54427 34.3906 1.44401 34.4609 1.36328C34.5339 1.27995 34.6432 1.23828 34.7891 1.23828C34.9323 1.23828 35.0404 1.27995 35.1133 1.36328C35.1862 1.44401 35.2227 1.54427 35.2227 1.66406C35.2227 1.78125 35.1862 1.87891 35.1133 1.95703C35.0404 2.03516 34.9323 2.07422 34.7891 2.07422C34.6432 2.07422 34.5339 2.03516 34.4609 1.95703C34.3906 1.87891 34.3555 1.78125 34.3555 1.66406Z" fill="#C97676"/>
<path d="M39.5039 6.49219C39.6341 6.49219 39.7604 6.47135 39.8828 6.42969C40.0078 6.38802 40.1185 6.33073 40.2148 6.25781C40.3112 6.18229 40.388 6.09505 40.4453 5.99609C40.5052 5.89453 40.5365 5.78516 40.5391 5.66797H41.2227C41.2201 5.85547 41.1706 6.03516 41.0742 6.20703C40.9805 6.3763 40.8542 6.52604 40.6953 6.65625C40.5365 6.78385 40.3542 6.88672 40.1484 6.96484C39.9427 7.04037 39.7279 7.07813 39.5039 7.07813C39.1836 7.07813 38.9036 7.02083 38.6641 6.90625C38.4245 6.79167 38.224 6.63802 38.0625 6.44531C37.9036 6.25 37.7839 6.02604 37.7031 5.77344C37.6224 5.51823 37.582 5.25 37.582 4.96875V4.80469C37.582 4.52604 37.6224 4.25912 37.7031 4.00391C37.7839 3.7487 37.9036 3.52474 38.0625 3.33203C38.224 3.13672 38.4245 2.98177 38.6641 2.86719C38.9036 2.7526 39.1836 2.69531 39.5039 2.69531C39.7539 2.69531 39.9831 2.73568 40.1914 2.81641C40.4023 2.89453 40.5833 3.0026 40.7344 3.14063C40.888 3.27604 41.0078 3.4375 41.0938 3.625C41.1797 3.8125 41.2227 4.01302 41.2227 4.22656H40.5391C40.5365 4.09896 40.5078 3.97917 40.4531 3.86719C40.401 3.7526 40.3294 3.65234 40.2383 3.56641C40.1471 3.48047 40.0378 3.41276 39.9102 3.36328C39.7852 3.3138 39.6497 3.28906 39.5039 3.28906C39.2799 3.28906 39.0911 3.33464 38.9375 3.42578C38.7865 3.51432 38.6641 3.63151 38.5703 3.77734C38.4766 3.92057 38.4089 4.08203 38.3672 4.26172C38.3281 4.44141 38.3086 4.6224 38.3086 4.80469V4.96875C38.3086 5.15365 38.3281 5.33724 38.3672 5.51953C38.4089 5.69922 38.4753 5.86198 38.5664 6.00781C38.6602 6.15104 38.7826 6.26823 38.9336 6.35938C39.0872 6.44792 39.2773 6.49219 39.5039 6.49219Z" fill="#C97676"/>
<path d="M42.6211 2.77344H44.7812V6.375H46.1602V7H42.6211V6.375H44.0586V3.40234H42.6211V2.77344ZM43.9648 1.66406C43.9648 1.54427 44 1.44401 44.0703 1.36328C44.1432 1.27995 44.2526 1.23828 44.3984 1.23828C44.5417 1.23828 44.6497 1.27995 44.7227 1.36328C44.7956 1.44401 44.832 1.54427 44.832 1.66406C44.832 1.78125 44.7956 1.87891 44.7227 1.95703C44.6497 2.03516 44.5417 2.07422 44.3984 2.07422C44.2526 2.07422 44.1432 2.03516 44.0703 1.95703C44 1.87891 43.9648 1.78125 43.9648 1.66406Z" fill="#C97676"/>
<path d="M49.1797 7.07813C48.8828 7.07813 48.6094 7.02734 48.3594 6.92578C48.112 6.82422 47.8997 6.68229 47.7227 6.5C47.5456 6.31771 47.4076 6.10156 47.3086 5.85156C47.2096 5.60156 47.1602 5.32943 47.1602 5.03516V4.87109C47.1602 4.52995 47.2148 4.22526 47.3242 3.95703C47.4336 3.6862 47.5781 3.45833 47.7578 3.27344C47.9401 3.08594 48.1458 2.94271 48.375 2.84375C48.6068 2.74479 48.8438 2.69531 49.0859 2.69531C49.3906 2.69531 49.6562 2.7487 49.8828 2.85547C50.112 2.95964 50.3021 3.10547 50.4531 3.29297C50.6042 3.47787 50.7161 3.69662 50.7891 3.94922C50.8646 4.20182 50.9023 4.47526 50.9023 4.76953V5.09375H47.8828C47.8906 5.28646 47.9271 5.46745 47.9922 5.63672C48.0599 5.80599 48.151 5.95443 48.2656 6.08203C48.3828 6.20703 48.5221 6.30599 48.6836 6.37891C48.8451 6.45182 49.0234 6.48828 49.2188 6.48828C49.4766 6.48828 49.7057 6.4362 49.9062 6.33203C50.1068 6.22787 50.2734 6.08984 50.4062 5.91797L50.8477 6.26172C50.7773 6.36849 50.6888 6.47135 50.582 6.57031C50.4779 6.66667 50.3568 6.7526 50.2188 6.82813C50.0807 6.90365 49.9245 6.96354 49.75 7.00781C49.5755 7.05469 49.3854 7.07813 49.1797 7.07813ZM49.0859 3.28906C48.9401 3.28906 48.8021 3.31641 48.6719 3.37109C48.5417 3.42318 48.4245 3.5013 48.3203 3.60547C48.2161 3.70703 48.1276 3.83333 48.0547 3.98438C47.9844 4.13281 47.9349 4.30469 47.9062 4.5H50.1797V4.44531C50.1719 4.30469 50.1445 4.16537 50.0977 4.02734C50.0534 3.88932 49.987 3.76563 49.8984 3.65625C49.8099 3.54688 49.6979 3.45833 49.5625 3.39063C49.4297 3.32292 49.2708 3.28906 49.0859 3.28906Z" fill="#C97676"/>
<path d="M52.7656 2.77344L52.8164 3.39844C52.9701 3.17969 53.1589 3.00912 53.3828 2.88672C53.6068 2.76172 53.8568 2.69792 54.1328 2.69531C54.3542 2.69531 54.5547 2.72656 54.7344 2.78906C54.9167 2.85156 55.0716 2.94922 55.1992 3.08203C55.3268 3.21484 55.4245 3.38412 55.4922 3.58984C55.5625 3.79297 55.5977 4.03516 55.5977 4.31641V7H54.875V4.33203C54.875 4.14453 54.8542 3.98568 54.8125 3.85547C54.7708 3.72526 54.7083 3.61979 54.625 3.53906C54.5443 3.45833 54.444 3.39974 54.3242 3.36328C54.207 3.32682 54.0716 3.30859 53.918 3.30859C53.6758 3.30859 53.4622 3.36979 53.2773 3.49219C53.0951 3.61198 52.9492 3.77083 52.8398 3.96875V7H52.1172V2.77344H52.7656Z" fill="#C97676"/>
<path d="M58.7227 6.49219C58.8529 6.49219 58.9792 6.47135 59.1016 6.42969C59.2266 6.38802 59.3372 6.33073 59.4336 6.25781C59.5299 6.18229 59.6068 6.09505 59.6641 5.99609C59.724 5.89453 59.7552 5.78516 59.7578 5.66797H60.4414C60.4388 5.85547 60.3893 6.03516 60.293 6.20703C60.1992 6.3763 60.0729 6.52604 59.9141 6.65625C59.7552 6.78385 59.5729 6.88672 59.3672 6.96484C59.1615 7.04037 58.9466 7.07813 58.7227 7.07813C58.4023 7.07813 58.1224 7.02083 57.8828 6.90625C57.6432 6.79167 57.4427 6.63802 57.2812 6.44531C57.1224 6.25 57.0026 6.02604 56.9219 5.77344C56.8411 5.51823 56.8008 5.25 56.8008 4.96875V4.80469C56.8008 4.52604 56.8411 4.25912 56.9219 4.00391C57.0026 3.7487 57.1224 3.52474 57.2812 3.33203C57.4427 3.13672 57.6432 2.98177 57.8828 2.86719C58.1224 2.7526 58.4023 2.69531 58.7227 2.69531C58.9727 2.69531 59.2018 2.73568 59.4102 2.81641C59.6211 2.89453 59.8021 3.0026 59.9531 3.14063C60.1068 3.27604 60.2266 3.4375 60.3125 3.625C60.3984 3.8125 60.4414 4.01302 60.4414 4.22656H59.7578C59.7552 4.09896 59.7266 3.97917 59.6719 3.86719C59.6198 3.7526 59.5482 3.65234 59.457 3.56641C59.3659 3.48047 59.2565 3.41276 59.1289 3.36328C59.0039 3.3138 58.8685 3.28906 58.7227 3.28906C58.4987 3.28906 58.3099 3.33464 58.1562 3.42578C58.0052 3.51432 57.8828 3.63151 57.7891 3.77734C57.6953 3.92057 57.6276 4.08203 57.5859 4.26172C57.5469 4.44141 57.5273 4.6224 57.5273 4.80469V4.96875C57.5273 5.15365 57.5469 5.33724 57.5859 5.51953C57.6276 5.69922 57.694 5.86198 57.7852 6.00781C57.8789 6.15104 58.0013 6.26823 58.1523 6.35938C58.306 6.44792 58.4961 6.49219 58.7227 6.49219Z" fill="#C97676"/>
<path d="M61.8398 2.77344H64V6.375H65.3789V7H61.8398V6.375H63.2773V3.40234H61.8398V2.77344ZM63.1836 1.66406C63.1836 1.54427 63.2188 1.44401 63.2891 1.36328C63.362 1.27995 63.4714 1.23828 63.6172 1.23828C63.7604 1.23828 63.8685 1.27995 63.9414 1.36328C64.0143 1.44401 64.0508 1.54427 64.0508 1.66406C64.0508 1.78125 64.0143 1.87891 63.9414 1.95703C63.8685 2.03516 63.7604 2.07422 63.6172 2.07422C63.4714 2.07422 63.362 2.03516 63.2891 1.95703C63.2188 1.87891 63.1836 1.78125 63.1836 1.66406Z" fill="#C97676"/>
<path d="M68.3984 7.07813C68.1016 7.07813 67.8281 7.02734 67.5781 6.92578C67.3307 6.82422 67.1185 6.68229 66.9414 6.5C66.7643 6.31771 66.6263 6.10156 66.5273 5.85156C66.4284 5.60156 66.3789 5.32943 66.3789 5.03516V4.87109C66.3789 4.52995 66.4336 4.22526 66.543 3.95703C66.6523 3.6862 66.7969 3.45833 66.9766 3.27344C67.1589 3.08594 67.3646 2.94271 67.5938 2.84375C67.8255 2.74479 68.0625 2.69531 68.3047 2.69531C68.6094 2.69531 68.875 2.7487 69.1016 2.85547C69.3307 2.95964 69.5208 3.10547 69.6719 3.29297C69.8229 3.47787 69.9349 3.69662 70.0078 3.94922C70.0833 4.20182 70.1211 4.47526 70.1211 4.76953V5.09375H67.1016C67.1094 5.28646 67.1458 5.46745 67.2109 5.63672C67.2786 5.80599 67.3698 5.95443 67.4844 6.08203C67.6016 6.20703 67.7409 6.30599 67.9023 6.37891C68.0638 6.45182 68.2422 6.48828 68.4375 6.48828C68.6953 6.48828 68.9245 6.4362 69.125 6.33203C69.3255 6.22787 69.4922 6.08984 69.625 5.91797L70.0664 6.26172C69.9961 6.36849 69.9076 6.47135 69.8008 6.57031C69.6966 6.66667 69.5755 6.7526 69.4375 6.82813C69.2995 6.90365 69.1432 6.96354 68.9688 7.00781C68.7943 7.05469 68.6042 7.07813 68.3984 7.07813ZM68.3047 3.28906C68.1589 3.28906 68.0208 3.31641 67.8906 3.37109C67.7604 3.42318 67.6432 3.5013 67.5391 3.60547C67.4349 3.70703 67.3464 3.83333 67.2734 3.98438C67.2031 4.13281 67.1536 4.30469 67.125 4.5H69.3984V4.44531C69.3906 4.30469 69.3633 4.16537 69.3164 4.02734C69.2721 3.88932 69.2057 3.76563 69.1172 3.65625C69.0286 3.54688 68.9167 3.45833 68.7812 3.39063C68.6484 3.32292 68.4896 3.28906 68.3047 3.28906Z" fill="#C97676"/>
<path d="M74.1445 5.87891C74.1445 5.79297 74.1276 5.71615 74.0938 5.64844C74.0599 5.57813 74.0026 5.51432 73.9219 5.45703C73.8411 5.39974 73.7344 5.34766 73.6016 5.30078C73.4688 5.2513 73.3034 5.20703 73.1055 5.16797C72.8633 5.11849 72.6419 5.05859 72.4414 4.98828C72.2435 4.91797 72.0729 4.83464 71.9297 4.73828C71.7891 4.63932 71.6797 4.52474 71.6016 4.39453C71.5234 4.26172 71.4844 4.10807 71.4844 3.93359C71.4844 3.76172 71.5247 3.60156 71.6055 3.45313C71.6862 3.30208 71.7995 3.17057 71.9453 3.05859C72.0911 2.94662 72.2643 2.85807 72.4648 2.79297C72.668 2.72787 72.8906 2.69531 73.1328 2.69531C73.3932 2.69531 73.6276 2.72917 73.8359 2.79688C74.0443 2.86458 74.2214 2.95833 74.3672 3.07813C74.513 3.19792 74.625 3.33854 74.7031 3.5C74.7839 3.65885 74.8242 3.83073 74.8242 4.01563H74.1016C74.1016 3.92448 74.0781 3.83594 74.0312 3.75C73.9844 3.66146 73.9193 3.58333 73.8359 3.51563C73.7526 3.44792 73.651 3.39323 73.5312 3.35156C73.4141 3.3099 73.2812 3.28906 73.1328 3.28906C72.9792 3.28906 72.8438 3.30599 72.7266 3.33984C72.612 3.3737 72.5156 3.41927 72.4375 3.47656C72.362 3.53385 72.3047 3.60026 72.2656 3.67578C72.2266 3.7513 72.207 3.82943 72.207 3.91016C72.207 3.99349 72.2227 4.06771 72.2539 4.13281C72.2852 4.19792 72.3385 4.25651 72.4141 4.30859C72.4922 4.36068 72.5951 4.40755 72.7227 4.44922C72.8529 4.49089 73.0169 4.53125 73.2148 4.57031C73.4753 4.625 73.7083 4.6888 73.9141 4.76172C74.1198 4.83203 74.293 4.91797 74.4336 5.01953C74.5742 5.11849 74.681 5.23438 74.7539 5.36719C74.8294 5.5 74.8672 5.65365 74.8672 5.82813C74.8672 6.01563 74.8242 6.1862 74.7383 6.33984C74.6549 6.49349 74.5378 6.625 74.3867 6.73438C74.2357 6.84375 74.0547 6.92839 73.8438 6.98828C73.6328 7.04818 73.4023 7.07813 73.1523 7.07813C72.8659 7.07813 72.6107 7.04037 72.3867 6.96484C72.1628 6.88672 71.9727 6.78516 71.8164 6.66016C71.6628 6.53255 71.5443 6.38542 71.4609 6.21875C71.3802 6.05208 71.3398 5.87891 71.3398 5.69922H72.0625C72.0729 5.84766 72.112 5.97266 72.1797 6.07422C72.25 6.17578 72.3359 6.25781 72.4375 6.32031C72.5417 6.38281 72.6562 6.42708 72.7812 6.45313C72.9062 6.47917 73.0299 6.49219 73.1523 6.49219C73.457 6.49219 73.6979 6.4362 73.875 6.32422C74.0521 6.21224 74.1419 6.0638 74.1445 5.87891Z" fill="#C97676"/>
<path fill-rule="evenodd" clip-rule="evenodd" d="M4.54597 2.08028C4.71424 1.68435 4.30103 1.29442 3.93195 1.50084C3.67502 1.64453 3.35629 1.49647 3.29181 1.20347L3.28088 1.15379C3.19049 0.743098 2.64383 0.687963 2.47593 1.07261C2.35698 1.34513 2.0142 1.41914 1.79972 1.21861L1.77567 1.19612C1.47377 0.91386 0.996768 1.19752 1.08312 1.60796C1.14443 1.89939 0.906565 2.16603 0.619005 2.12823C0.214003 2.07498 -0.0198179 2.58814 0.279527 2.87326L0.303374 2.89597C0.516039 3.09853 0.473783 3.45614 0.220013 3.60143C-0.138171 3.80651 -0.0378225 4.36195 0.367772 4.4193L0.41683 4.42624C0.706192 4.46716 0.876985 4.78105 0.759851 5.05667C0.591588 5.4526 1.00479 5.84254 1.37388 5.63612C1.63081 5.49242 1.94954 5.64049 2.01402 5.93349L2.02495 5.98316C2.11533 6.39386 2.662 6.44899 2.8299 6.06435C2.94885 5.79183 3.29163 5.71781 3.50611 5.91834L3.53016 5.94083C3.83205 6.2231 4.30906 5.93943 4.22271 5.52899C4.16139 5.23757 4.39926 4.97092 4.68682 5.00873C5.09182 5.06197 5.32564 4.54883 5.0263 4.2637L5.00245 4.24098C4.78979 4.03842 4.83204 3.68082 5.08581 3.53552C5.444 3.33045 5.34365 2.775 4.93805 2.71765L4.889 2.71072C4.59964 2.6698 4.42884 2.3559 4.54597 2.08028ZM2.42367 4.06664C2.69697 4.20685 3.02116 4.09746 3.14777 3.82233C3.27437 3.54719 3.15545 3.2105 2.88214 3.0703C2.60884 2.9301 2.28464 3.03948 2.15804 3.31461C2.03144 3.58975 2.15036 3.92644 2.42367 4.06664Z" fill="#C97676"/>
<path fill-rule="evenodd" clip-rule="evenodd" d="M7.79801 4.55279C7.66529 4.12846 7.09681 4.12846 6.96409 4.55279C6.8711 4.8501 6.53148 4.96661 6.29074 4.78379C5.94715 4.52287 5.48723 4.87568 5.61608 5.30133C5.70636 5.59958 5.49647 5.9046 5.19993 5.90611C4.7767 5.90825 4.60103 6.47911 4.94223 6.7435C5.1813 6.92875 5.1813 7.30579 4.94223 7.49104C4.60103 7.75544 4.7767 8.32629 5.19993 8.32844C5.49647 8.32994 5.70636 8.63497 5.61608 8.93321C5.48723 9.35886 5.94715 9.71167 6.29074 9.45075C6.53149 9.26793 6.8711 9.38444 6.96409 9.68176C7.09681 10.1061 7.66529 10.1061 7.79801 9.68176C7.891 9.38444 8.23062 9.26793 8.47136 9.45075C8.81496 9.71167 9.27487 9.35886 9.14602 8.93321C9.05574 8.63497 9.26563 8.32994 9.56217 8.32844C9.9854 8.32629 10.1611 7.75544 9.81987 7.49104C9.5808 7.30579 9.5808 6.92875 9.81987 6.7435C10.1611 6.47911 9.9854 5.90825 9.56217 5.90611C9.26563 5.9046 9.05574 5.59958 9.14602 5.30133C9.27487 4.87568 8.81496 4.52287 8.47136 4.78379C8.23062 4.96661 7.891 4.8501 7.79801 4.55279ZM7.38105 7.70191C7.68686 7.70191 7.93477 7.44016 7.93477 7.11727C7.93477 6.79438 7.68686 6.53263 7.38105 6.53263C7.07524 6.53263 6.82733 6.79438 6.82733 7.11727C6.82733 7.44016 7.07524 7.70191 7.38105 7.70191Z" fill="#C97676"/>
<path fill-rule="evenodd" clip-rule="evenodd" d="M8.94301 1.07021C9.10493 0.808031 8.85365 0.480206 8.57704 0.592766C8.3829 0.67177 8.17226 0.526882 8.16258 0.307434C8.14888 -0.00319558 7.76737 -0.114841 7.60418 0.14402L7.59319 0.161446C7.47761 0.344787 7.22699 0.35776 7.09497 0.187241C6.90684 -0.0557344 6.53433 0.101291 6.54528 0.41491C6.553 0.635757 6.3544 0.805467 6.15144 0.751465C5.86321 0.674779 5.64011 1.02672 5.82596 1.27164C5.95639 1.44352 5.89213 1.6996 5.69821 1.78075L5.67978 1.78846C5.40598 1.90303 5.42987 2.32026 5.71475 2.39916C5.91601 2.45489 6.00631 2.70262 5.89266 2.88664C5.73073 3.14881 5.98201 3.47664 6.25862 3.36408C6.45277 3.28507 6.66341 3.42995 6.67309 3.6494C6.68679 3.96003 7.06829 4.07168 7.23149 3.81282L7.24247 3.7954C7.35806 3.61205 7.60868 3.59908 7.7407 3.7696C7.92882 4.01258 8.30134 3.85554 8.29038 3.54192C8.28267 3.32108 8.48127 3.15137 8.68423 3.20538C8.97245 3.28206 9.19556 2.93012 9.0097 2.6852C8.87927 2.51332 8.94353 2.25723 9.13746 2.17609L9.15589 2.16838C9.42969 2.05382 9.4058 1.63658 9.12091 1.55768C8.91966 1.50194 8.82936 1.25422 8.94301 1.07021ZM7.11156 2.24015C7.24551 2.41491 7.49123 2.43939 7.66038 2.29485C7.82954 2.1503 7.85808 1.89145 7.72412 1.7167C7.59017 1.54194 7.34445 1.51746 7.17529 1.662C7.00614 1.80655 6.9776 2.0654 7.11156 2.24015Z" fill="#C97676"/>
<path fill-rule="evenodd" clip-rule="evenodd" d="M83.546 2.08028C83.7142 1.68435 83.301 1.29442 82.932 1.50084C82.675 1.64453 82.3563 1.49647 82.2918 1.20347L82.2809 1.15379C82.1905 0.743098 81.6438 0.687963 81.4759 1.07261C81.357 1.34513 81.0142 1.41914 80.7997 1.21861L80.7757 1.19612C80.4738 0.91386 79.9968 1.19752 80.0831 1.60796C80.1444 1.89939 79.9066 2.16603 79.619 2.12823C79.214 2.07498 78.9802 2.58814 79.2795 2.87326L79.3034 2.89597C79.516 3.09853 79.4738 3.45614 79.22 3.60143C78.8618 3.80651 78.9622 4.36195 79.3678 4.4193L79.4168 4.42624C79.7062 4.46716 79.877 4.78105 79.7598 5.05667C79.5916 5.4526 80.0048 5.84254 80.3739 5.63612C80.6308 5.49242 80.9495 5.64049 81.014 5.93349L81.0249 5.98316C81.1153 6.39386 81.662 6.44899 81.8299 6.06435C81.9488 5.79183 82.2916 5.71781 82.5061 5.91834L82.5302 5.94083C82.8321 6.2231 83.3091 5.93943 83.2227 5.52899C83.1614 5.23757 83.3993 4.97092 83.6868 5.00873C84.0918 5.06197 84.3256 4.54883 84.0263 4.2637L84.0024 4.24098C83.7898 4.03842 83.832 3.68082 84.0858 3.53552C84.444 3.33045 84.3437 2.775 83.9381 2.71765L83.889 2.71072C83.5996 2.6698 83.4288 2.3559 83.546 2.08028ZM81.4237 4.06664C81.697 4.20685 82.0212 4.09746 82.1478 3.82233C82.2744 3.54719 82.1554 3.2105 81.8821 3.0703C81.6088 2.9301 81.2846 3.03948 81.158 3.31461C81.0314 3.58975 81.1504 3.92644 81.4237 4.06664Z" fill="#C97676"/>
<path fill-rule="evenodd" clip-rule="evenodd" d="M86.798 4.55279C86.6653 4.12846 86.0968 4.12846 85.9641 4.55279C85.8711 4.8501 85.5315 4.96661 85.2907 4.78379C84.9471 4.52287 84.4872 4.87568 84.6161 5.30133C84.7064 5.59958 84.4965 5.9046 84.1999 5.90611C83.7767 5.90825 83.601 6.47911 83.9422 6.7435C84.1813 6.92875 84.1813 7.30579 83.9422 7.49104C83.601 7.75544 83.7767 8.32629 84.1999 8.32844C84.4965 8.32994 84.7064 8.63497 84.6161 8.93321C84.4872 9.35886 84.9471 9.71167 85.2907 9.45075C85.5315 9.26793 85.8711 9.38444 85.9641 9.68176C86.0968 10.1061 86.6653 10.1061 86.798 9.68176C86.891 9.38444 87.2306 9.26793 87.4714 9.45075C87.815 9.71167 88.2749 9.35886 88.146 8.93321C88.0557 8.63497 88.2656 8.32994 88.5622 8.32844C88.9854 8.32629 89.1611 7.75544 88.8199 7.49104C88.5808 7.30579 88.5808 6.92875 88.8199 6.7435C89.1611 6.47911 88.9854 5.90825 88.5622 5.90611C88.2656 5.9046 88.0557 5.59958 88.146 5.30133C88.2749 4.87568 87.815 4.52287 87.4714 4.78379C87.2306 4.96661 86.891 4.8501 86.798 4.55279ZM86.3811 7.70191C86.6869 7.70191 86.9348 7.44016 86.9348 7.11727C86.9348 6.79438 86.6869 6.53263 86.3811 6.53263C86.0752 6.53263 85.8273 6.79438 85.8273 7.11727C85.8273 7.44016 86.0752 7.70191 86.3811 7.70191Z" fill="#C97676"/>
<path fill-rule="evenodd" clip-rule="evenodd" d="M87.943 1.07021C88.1049 0.808031 87.8536 0.480206 87.577 0.592766C87.3829 0.67177 87.1723 0.526882 87.1626 0.307434C87.1489 -0.00319558 86.7674 -0.114841 86.6042 0.14402L86.5932 0.161446C86.4776 0.344787 86.227 0.35776 86.095 0.187241C85.9068 -0.0557344 85.5343 0.101291 85.5453 0.41491C85.553 0.635757 85.3544 0.805467 85.1514 0.751465C84.8632 0.674779 84.6401 1.02672 84.826 1.27164C84.9564 1.44352 84.8921 1.6996 84.6982 1.78075L84.6798 1.78846C84.406 1.90303 84.4299 2.32026 84.7148 2.39916C84.916 2.45489 85.0063 2.70262 84.8927 2.88664C84.7307 3.14881 84.982 3.47664 85.2586 3.36408C85.4528 3.28507 85.6634 3.42995 85.6731 3.6494C85.6868 3.96003 86.0683 4.07168 86.2315 3.81282L86.2425 3.7954C86.3581 3.61205 86.6087 3.59908 86.7407 3.7696C86.9288 4.01258 87.3013 3.85554 87.2904 3.54192C87.2827 3.32108 87.4813 3.15137 87.6842 3.20538C87.9724 3.28206 88.1956 2.93012 88.0097 2.6852C87.8793 2.51332 87.9435 2.25723 88.1375 2.17609L88.1559 2.16838C88.4297 2.05382 88.4058 1.63658 88.1209 1.55768C87.9197 1.50194 87.8294 1.25422 87.943 1.07021ZM86.1116 2.24015C86.2455 2.41491 86.4912 2.43939 86.6604 2.29485C86.8295 2.1503 86.8581 1.89145 86.7241 1.7167C86.5902 1.54194 86.3444 1.51746 86.1753 1.662C86.0061 1.80655 85.9776 2.0654 86.1116 2.24015Z" fill="#C97676"/>
</svg>
