<svg width="50" height="50" viewBox="0 0 50 50" fill="none" xmlns="http://www.w3.org/2000/svg">
<rect width="50" height="50" fill="white"/>
<g clip-path="url(#clip0)">
<path d="M42.0033 28.2563C40.5 28.266 39.1982 28.6803 38.1064 29.297C37.7033 28.3816 37.3002 27.5819 37.233 26.9845C37.1574 26.2907 37.065 25.8668 37.1574 25.0381C37.2498 24.2095 37.6697 23.0339 37.6697 22.9376C37.6613 22.8509 37.5773 22.4269 36.7123 22.4173C35.8472 22.4076 35.0998 22.61 35.0158 22.8701C34.9318 23.1303 34.7638 23.7277 34.6546 24.3444C34.5035 25.2501 32.9246 28.4587 32.0259 30.1449C31.732 29.4897 31.48 28.9116 31.4296 28.4491C31.3541 27.7553 31.2617 27.3313 31.3541 26.5027C31.4464 25.6741 31.8664 24.4985 31.8664 24.4022C31.858 24.3155 31.774 23.8915 30.9089 23.8819C30.0439 23.8722 29.2964 24.0746 29.2125 24.3347C29.1285 24.5949 29.0361 25.2116 28.8513 25.8089C28.675 26.4063 26.5754 31.7636 26.0295 33.1608C25.7523 33.8738 25.5087 34.4423 25.3324 34.8277C25.156 35.2131 25.324 34.8566 25.3072 34.8951C25.156 35.2228 25.072 35.4058 25.072 35.4058V35.4155C24.9545 35.6563 24.8285 35.8876 24.7697 35.8876C24.7277 35.8876 24.6437 35.242 24.7865 34.3556C25.0972 32.4959 25.8531 29.5957 25.8447 29.4897C25.8447 29.4415 25.9875 28.9308 25.3576 28.6707C24.7445 28.4105 24.5261 28.8441 24.4757 28.8441C24.4254 28.8441 24.3834 28.9983 24.3834 28.9983C24.3834 28.9983 25.0636 25.7319 23.0816 25.7319C21.8386 25.7319 20.1254 27.2832 19.2771 28.6996C18.7396 29.0368 17.5974 29.7498 16.388 30.511C15.9261 30.8001 15.4474 31.1084 14.9939 31.3879L14.9015 31.2722C12.4996 28.3334 8.0568 26.2522 8.24156 22.3017C8.30875 20.866 8.74547 17.0793 16.7744 12.4928C23.3504 8.73499 28.6162 9.76598 29.5316 12.0592C30.8334 15.3353 26.7181 21.4248 19.8818 22.3017C17.2783 22.6389 15.9093 21.4826 15.565 21.0491C15.2039 20.5962 15.1535 20.5769 15.0191 20.6636C14.8007 20.7985 14.9351 21.2032 15.0191 21.4441C15.2207 22.0511 16.0605 23.1303 17.4882 23.6699C18.7396 24.142 21.7966 24.4022 25.492 22.7642C29.6324 20.9238 32.8658 15.817 31.9168 11.5485C30.9509 7.20296 24.6689 5.77692 18.7312 8.19541C15.1955 9.64072 11.3658 11.8954 8.61109 14.8535C5.3357 18.3608 4.815 21.4248 5.03336 22.6967C5.79762 27.235 11.2482 30.1931 13.4318 32.3803C13.3226 32.4478 13.2218 32.5152 13.1295 32.573C12.0377 33.1897 7.88043 35.6853 6.83902 38.3254C5.66324 41.3123 7.02379 43.461 7.93082 43.7501C10.7359 44.6462 13.6082 43.0371 15.1619 40.3873C16.7072 37.7376 16.5224 34.2978 15.8086 32.7272L15.7834 32.6694L16.64 32.0912C17.1943 31.7155 17.7402 31.3686 18.2189 31.0699C17.9502 31.9082 17.757 32.9006 17.6562 34.3459C17.5386 36.0418 18.1433 38.2386 18.9412 39.1058C19.2939 39.4816 19.7138 39.4912 19.9742 39.4912C20.898 39.4912 21.3179 38.6144 21.7798 37.5642C22.3509 36.2826 22.8548 34.7988 22.8548 34.7988C22.8548 34.7988 22.225 38.8168 23.9466 38.8168C24.5765 38.8168 25.2064 37.8821 25.492 37.4004V37.41C25.492 37.41 25.5087 37.3811 25.5423 37.3136C25.6095 37.198 25.6431 37.1306 25.6431 37.1306V37.1113C25.8951 36.6103 26.4578 35.4636 27.2976 33.5655C28.381 31.1181 29.4224 28.054 29.4224 28.054C29.4224 28.054 29.5232 28.8056 29.8339 30.0389C30.0187 30.7712 30.4218 31.5709 30.7326 32.3514C30.4806 32.7561 30.3295 32.9873 30.3295 32.9873L30.3379 32.997C30.1363 33.3053 29.9095 33.6329 29.6744 33.9605C28.8177 35.136 27.7931 36.4754 27.6587 36.8608C27.4992 37.3136 27.5328 37.6509 27.8435 37.9207C28.0703 38.1134 28.4734 38.1519 28.9017 38.1134C29.6744 38.0556 30.2119 37.8339 30.4806 37.6991C30.9005 37.5256 31.3793 37.2655 31.8412 36.88C32.681 36.167 33.1933 35.1553 33.1429 33.8063C33.1177 33.0644 32.9078 32.3321 32.6474 31.6384C32.723 31.5131 32.7986 31.3879 32.8742 31.253C34.2011 29.0272 35.2257 26.5798 35.2257 26.5798C35.2257 26.5798 35.3265 27.3313 35.6373 28.5647C35.7968 29.191 36.116 29.8751 36.4015 30.5496C35.1586 31.7155 34.3775 33.0644 34.1087 33.9509C33.6132 35.5889 33.9996 36.3308 34.7302 36.5043C35.0578 36.5813 35.5281 36.4079 35.8808 36.2345C36.3175 36.0707 36.8466 35.7912 37.3337 35.3769C38.1736 34.6639 38.9798 33.6714 38.9379 32.3321C38.9127 31.7155 38.7699 31.1084 38.5767 30.5303C39.6349 30.0293 41.0039 29.7402 42.7423 29.9811C46.4796 30.4821 47.2187 33.1608 47.0759 34.2785C46.9332 35.3962 46.1521 36.0129 45.8918 36.2056C45.6314 36.3886 45.5474 36.4561 45.5726 36.591C45.6062 36.7933 45.7238 36.7837 45.9505 36.7451C46.2613 36.6873 47.9158 35.8298 47.983 33.7678C48.0837 31.1181 45.8918 28.2274 42.0033 28.2563V28.2563ZM13.1798 39.4045C11.9453 40.9558 10.2068 41.5436 9.46773 41.0425C8.66988 40.5126 8.98062 38.229 10.5007 36.5813C11.4246 35.5793 12.6255 34.6543 13.415 34.0858C13.5914 33.9605 13.8601 33.7774 14.1793 33.5558C14.2296 33.5173 14.2632 33.498 14.2632 33.498C14.322 33.4595 14.3892 33.4113 14.4564 33.3631C15.0191 35.7142 14.4816 37.7761 13.1798 39.4045V39.4045ZM22.2082 32.361C21.7798 33.5655 20.8728 36.6584 20.3269 36.485C19.8566 36.3405 19.5711 33.9991 20.2345 31.6866C20.5705 30.5207 21.2843 29.1332 21.7043 28.5936C22.3845 27.7264 23.1236 27.4373 23.3084 27.7938C23.5267 28.2563 22.4769 31.6095 22.2082 32.361ZM29.6576 36.4464C29.4728 36.5524 29.3048 36.6295 29.2293 36.5717C29.1705 36.5332 29.3048 36.3886 29.3048 36.3886C29.3048 36.3886 30.2371 35.242 30.6066 34.7121C30.8166 34.4037 31.0685 34.0472 31.3373 33.6425V33.7582C31.3373 35.1457 30.1783 36.0707 29.6576 36.4464V36.4464ZM35.4021 34.9433C35.2677 34.8277 35.2845 34.4712 35.738 33.3535C35.9144 32.9103 36.3175 32.1683 37.0146 31.4649C37.0986 31.754 37.149 32.0334 37.1406 32.2936C37.1322 34.028 36.0572 34.6735 35.4021 34.9433Z" fill="#CF649A"/>
</g>
<defs>
<clipPath id="clip0">
<rect width="43" height="37" fill="white" transform="translate(5 7)"/>
</clipPath>
</defs>
</svg>
