<svg width="533" height="80" viewBox="0 0 533 80" fill="none" xmlns="http://www.w3.org/2000/svg">
<path d="M514.231 0H16.5491C16.5491 0 53.7845 29.2537 16.5491 40C-20.6863 50.7463 16.5491 80 16.5491 80H514.231C514.231 80 472.001 57.6119 514.231 40C556.461 22.3881 514.231 0 514.231 0Z" fill="#BDC6DD" fill-opacity="0.33"/>
<path d="M514.111 0.503669C514.109 0.502428 514.107 0.501205 514.105 0.5H17.9384C18.0817 0.621958 18.2373 0.755606 18.4041 0.900442C19.3566 1.72747 20.6746 2.92024 22.1389 4.38534C25.0625 7.31037 28.5921 11.3429 30.9527 15.7334C33.3084 20.1146 34.5495 24.9485 32.7203 29.4062C30.89 33.8669 26.0577 37.7762 16.6877 40.4804C7.44 43.1493 2.96344 46.9266 1.30298 50.9734C-0.358765 55.0231 0.727417 59.5176 3.02618 63.7931C5.32001 68.0593 8.77203 72.0119 11.6665 74.9077C13.1111 76.3531 14.4113 77.5297 15.3497 78.3445C15.8187 78.7518 16.1971 79.0684 16.4576 79.2827C16.5078 79.3239 16.5535 79.3614 16.5947 79.3949C16.6448 79.4357 16.688 79.4708 16.7243 79.5H512.354C512.317 79.4776 512.279 79.4549 512.241 79.4318C511.159 78.7798 509.663 77.829 508 76.6325C504.683 74.2453 500.669 70.8557 497.981 66.8848C495.289 62.9084 493.883 58.2739 495.956 53.4815C498.014 48.7262 503.441 43.958 514.039 39.5385C524.556 35.1521 529.686 30.5172 531.588 26.1214C533.474 21.7627 532.24 17.498 529.653 13.6758C527.062 9.84826 523.159 6.54009 519.878 4.17917C518.241 3.00159 516.768 2.06568 515.705 1.42456C515.173 1.10409 514.745 0.857511 514.45 0.691459C514.302 0.608439 514.188 0.545566 514.111 0.503669Z" stroke="black" stroke-opacity="0.17"/>
</svg>
